<?xml version="1.0" encoding="UTF-8" standalone="no"?>
<!-- Created with Inkscape (http://www.inkscape.org/) -->

<svg
   xmlns:dc="http://purl.org/dc/elements/1.1/"
   xmlns:cc="http://creativecommons.org/ns#"
   xmlns:rdf="http://www.w3.org/1999/02/22-rdf-syntax-ns#"
   xmlns:svg="http://www.w3.org/2000/svg"
   xmlns="http://www.w3.org/2000/svg"
   xmlns:xlink="http://www.w3.org/1999/xlink"
   version="1.2"
   width="100%"
   height="100%"
   viewBox="0 0 900 315"
   id="svg2">
  <defs
     id="defs4">
    <filter
       x="0"
       y="0"
       width="1"
       height="1"
       color-interpolation-filters="sRGB"
       id="filter4677">
      <feFlood
         flood-color="rgb(128,128,128)"
         flood-opacity="0"
         result="result1"
         id="feFlood4679" />
      <feBlend
         in2="SourceGraphic"
         mode="normal"
         result="result2"
         id="feBlend4681" />
      <feComposite
         in2="SourceGraphic"
         operator="arithmetic"
         k1="0"
         k2="1"
         k3="0"
         k4="0"
         result="result3"
         id="feComposite4683" />
      <feComposite
         in2="SourceGraphic"
         operator="in"
         result="fbSourceGraphic"
         id="feComposite4685" />
      <feColorMatrix
         id="feColorMatrix7261"
         values="0 0 0 -1 0 0 0 0 -1 0 0 0 0 -1 0 0 0 0 1 0"
         in="fbSourceGraphic"
         result="fbSourceGraphicAlpha" />
      <feColorMatrix
         result="fbSourceGraphic"
         in="fbSourceGraphic"
         values="0"
         type="saturate"
         id="feColorMatrix7263" />
      <feColorMatrix
         id="feColorMatrix7265"
         values="0 0 0 -1 0 0 0 0 -1 0 0 0 0 -1 0 0 0 0 1 0"
         in="fbSourceGraphic"
         result="fbSourceGraphicAlpha" />
      <feColorMatrix
         result="fbSourceGraphic"
         in="fbSourceGraphic"
         values="0"
         type="saturate"
         id="feColorMatrix7267" />
      <feColorMatrix
         id="feColorMatrix7269"
         values="0 0 0 -1 0 0 0 0 -1 0 0 0 0 -1 0 0 0 0 1 0"
         in="fbSourceGraphic"
         result="fbSourceGraphicAlpha" />
      <feColorMatrix
         result="fbSourceGraphic"
         in="fbSourceGraphic"
         values="0"
         type="saturate"
         id="feColorMatrix7271" />
      <feColorMatrix
         id="feColorMatrix7273"
         values="0 0 0 -1 0 0 0 0 -1 0 0 0 0 -1 0 0 0 0 1 0"
         in="fbSourceGraphic"
         result="fbSourceGraphicAlpha" />
      <feColorMatrix
         result="fbSourceGraphic"
         in="fbSourceGraphic"
         values="0"
         type="saturate"
         id="feColorMatrix7275" />
      <feColorMatrix
         id="feColorMatrix7277"
         values="0 0 0 -1 0 0 0 0 -1 0 0 0 0 -1 0 0 0 0 1 0"
         in="fbSourceGraphic"
         result="fbSourceGraphicAlpha" />
      <feColorMatrix
         result="fbSourceGraphic"
         in="fbSourceGraphic"
         values="0"
         type="saturate"
         id="feColorMatrix7279" />
      <feColorMatrix
         id="feColorMatrix7281"
         values="0 0 0 -1 0 0 0 0 -1 0 0 0 0 -1 0 0 0 0 1 0"
         in="fbSourceGraphic"
         result="fbSourceGraphicAlpha" />
      <feColorMatrix
         result="fbSourceGraphic"
         in="fbSourceGraphic"
         values="0"
         type="saturate"
         id="feColorMatrix7283" />
      <feColorMatrix
         id="feColorMatrix7285"
         values="0 0 0 -1 0 0 0 0 -1 0 0 0 0 -1 0 0 0 0 1 0"
         in="fbSourceGraphic"
         result="fbSourceGraphicAlpha" />
      <feColorMatrix
         result="fbSourceGraphic"
         in="fbSourceGraphic"
         values="0"
         type="saturate"
         id="feColorMatrix7287" />
      <feColorMatrix
         id="feColorMatrix7289"
         values="0 0 0 -1 0 0 0 0 -1 0 0 0 0 -1 0 0 0 0 1 0"
         in="fbSourceGraphic"
         result="fbSourceGraphicAlpha" />
      <feColorMatrix
         result="fbSourceGraphic"
         in="fbSourceGraphic"
         values="0"
         type="saturate"
         id="feColorMatrix7291" />
      <feColorMatrix
         id="feColorMatrix7293"
         values="0 0 0 -1 0 0 0 0 -1 0 0 0 0 -1 0 0 0 0 1 0"
         in="fbSourceGraphic"
         result="fbSourceGraphicAlpha" />
      <feColorMatrix
         result="fbSourceGraphic"
         in="fbSourceGraphic"
         values="0"
         type="saturate"
         id="feColorMatrix7295" />
      <feColorMatrix
         id="feColorMatrix7297"
         values="0 0 0 -1 0 0 0 0 -1 0 0 0 0 -1 0 0 0 0 1 0"
         in="fbSourceGraphic"
         result="fbSourceGraphicAlpha" />
      <feColorMatrix
         result="fbSourceGraphic"
         in="fbSourceGraphic"
         values="0"
         type="saturate"
         id="feColorMatrix7299" />
      <feColorMatrix
         id="feColorMatrix7301"
         values="0 0 0 -1 0 0 0 0 -1 0 0 0 0 -1 0 0 0 0 1 0"
         in="fbSourceGraphic"
         result="fbSourceGraphicAlpha" />
      <feColorMatrix
         result="fbSourceGraphic"
         in="fbSourceGraphic"
         values="0"
         type="saturate"
         id="feColorMatrix7303" />
      <feColorMatrix
         id="feColorMatrix7305"
         values="0 0 0 -1 0 0 0 0 -1 0 0 0 0 -1 0 0 0 0 1 0"
         in="fbSourceGraphic"
         result="fbSourceGraphicAlpha" />
      <feColorMatrix
         result="fbSourceGraphic"
         in="fbSourceGraphic"
         values="0"
         type="saturate"
         id="feColorMatrix7307" />
      <feColorMatrix
         id="feColorMatrix7309"
         values="0 0 0 -1 0 0 0 0 -1 0 0 0 0 -1 0 0 0 0 1 0"
         in="fbSourceGraphic"
         result="fbSourceGraphicAlpha" />
      <feColorMatrix
         result="fbSourceGraphic"
         in="fbSourceGraphic"
         values="0"
         type="saturate"
         id="feColorMatrix7311" />
      <feColorMatrix
         id="feColorMatrix7313"
         values="0 0 0 -1 0 0 0 0 -1 0 0 0 0 -1 0 0 0 0 1 0"
         in="fbSourceGraphic"
         result="fbSourceGraphicAlpha" />
      <feColorMatrix
         result="fbSourceGraphic"
         in="fbSourceGraphic"
         values="0"
         type="saturate"
         id="feColorMatrix7315" />
      <feColorMatrix
         id="feColorMatrix7317"
         values="0 0 0 -1 0 0 0 0 -1 0 0 0 0 -1 0 0 0 0 1 0"
         in="fbSourceGraphic"
         result="fbSourceGraphicAlpha" />
      <feColorMatrix
         result="fbSourceGraphic"
         in="fbSourceGraphic"
         values="0"
         type="saturate"
         id="feColorMatrix7319" />
      <feColorMatrix
         id="feColorMatrix7321"
         values="0 0 0 -1 0 0 0 0 -1 0 0 0 0 -1 0 0 0 0 1 0"
         in="fbSourceGraphic"
         result="fbSourceGraphicAlpha" />
      <feColorMatrix
         result="fbSourceGraphic"
         in="fbSourceGraphic"
         values="0"
         type="saturate"
         id="feColorMatrix7323" />
      <feColorMatrix
         id="feColorMatrix7325"
         values="0 0 0 -1 0 0 0 0 -1 0 0 0 0 -1 0 0 0 0 1 0"
         in="fbSourceGraphic"
         result="fbSourceGraphicAlpha" />
      <feColorMatrix
         result="fbSourceGraphic"
         in="fbSourceGraphic"
         values="0"
         type="saturate"
         id="feColorMatrix7327" />
      <feColorMatrix
         id="feColorMatrix7329"
         values="0 0 0 -1 0 0 0 0 -1 0 0 0 0 -1 0 0 0 0 1 0"
         in="fbSourceGraphic"
         result="fbSourceGraphicAlpha" />
      <feColorMatrix
         result="fbSourceGraphic"
         in="fbSourceGraphic"
         values="0"
         type="saturate"
         id="feColorMatrix7331" />
      <feColorMatrix
         id="feColorMatrix7333"
         values="0 0 0 -1 0 0 0 0 -1 0 0 0 0 -1 0 0 0 0 1 0"
         in="fbSourceGraphic"
         result="fbSourceGraphicAlpha" />
      <feColorMatrix
         result="fbSourceGraphic"
         in="fbSourceGraphic"
         values="0"
         type="saturate"
         id="feColorMatrix7335" />
      <feColorMatrix
         id="feColorMatrix7337"
         values="0 0 0 -1 0 0 0 0 -1 0 0 0 0 -1 0 0 0 0 1 0"
         in="fbSourceGraphic"
         result="fbSourceGraphicAlpha" />
      <feColorMatrix
         result="fbSourceGraphic"
         in="fbSourceGraphic"
         values="0"
         type="saturate"
         id="feColorMatrix7339" />
      <feColorMatrix
         id="feColorMatrix7341"
         values="0 0 0 -1 0 0 0 0 -1 0 0 0 0 -1 0 0 0 0 1 0"
         in="fbSourceGraphic"
         result="fbSourceGraphicAlpha" />
      <feColorMatrix
         result="fbSourceGraphic"
         in="fbSourceGraphic"
         values="0"
         type="saturate"
         id="feColorMatrix7343" />
      <feColorMatrix
         id="feColorMatrix7345"
         values="0 0 0 -1 0 0 0 0 -1 0 0 0 0 -1 0 0 0 0 1 0"
         in="fbSourceGraphic"
         result="fbSourceGraphicAlpha" />
      <feColorMatrix
         result="fbSourceGraphic"
         in="fbSourceGraphic"
         values="0"
         type="saturate"
         id="feColorMatrix7347" />
      <feColorMatrix
         id="feColorMatrix7349"
         values="0 0 0 -1 0 0 0 0 -1 0 0 0 0 -1 0 0 0 0 1 0"
         in="fbSourceGraphic"
         result="fbSourceGraphicAlpha" />
      <feColorMatrix
         result="fbSourceGraphic"
         in="fbSourceGraphic"
         values="0"
         type="saturate"
         id="feColorMatrix7351" />
      <feColorMatrix
         id="feColorMatrix7353"
         values="0 0 0 -1 0 0 0 0 -1 0 0 0 0 -1 0 0 0 0 1 0"
         in="fbSourceGraphic"
         result="fbSourceGraphicAlpha" />
      <feColorMatrix
         result="fbSourceGraphic"
         in="fbSourceGraphic"
         values="0"
         type="saturate"
         id="feColorMatrix7355" />
      <feColorMatrix
         id="feColorMatrix7357"
         values="0 0 0 -1 0 0 0 0 -1 0 0 0 0 -1 0 0 0 0 1 0"
         in="fbSourceGraphic"
         result="fbSourceGraphicAlpha" />
      <feColorMatrix
         result="fbSourceGraphic"
         in="fbSourceGraphic"
         values="0"
         type="saturate"
         id="feColorMatrix7359" />
      <feColorMatrix
         id="feColorMatrix7361"
         values="0 0 0 -1 0 0 0 0 -1 0 0 0 0 -1 0 0 0 0 1 0"
         in="fbSourceGraphic"
         result="fbSourceGraphicAlpha" />
      <feColorMatrix
         result="fbSourceGraphic"
         in="fbSourceGraphic"
         values="0"
         type="saturate"
         id="feColorMatrix7363" />
      <feColorMatrix
         id="feColorMatrix7365"
         values="0 0 0 -1 0 0 0 0 -1 0 0 0 0 -1 0 0 0 0 1 0"
         in="fbSourceGraphic"
         result="fbSourceGraphicAlpha" />
      <feColorMatrix
         result="fbSourceGraphic"
         in="fbSourceGraphic"
         values="0"
         type="saturate"
         id="feColorMatrix7367" />
      <feColorMatrix
         id="feColorMatrix7369"
         values="0 0 0 -1 0 0 0 0 -1 0 0 0 0 -1 0 0 0 0 1 0"
         in="fbSourceGraphic"
         result="fbSourceGraphicAlpha" />
      <feColorMatrix
         result="fbSourceGraphic"
         in="fbSourceGraphic"
         values="0"
         type="saturate"
         id="feColorMatrix7371" />
      <feColorMatrix
         id="feColorMatrix7373"
         values="0 0 0 -1 0 0 0 0 -1 0 0 0 0 -1 0 0 0 0 1 0"
         in="fbSourceGraphic"
         result="fbSourceGraphicAlpha" />
      <feColorMatrix
         result="fbSourceGraphic"
         in="fbSourceGraphic"
         values="0"
         type="saturate"
         id="feColorMatrix7375" />
      <feColorMatrix
         id="feColorMatrix7377"
         values="0 0 0 -1 0 0 0 0 -1 0 0 0 0 -1 0 0 0 0 1 0"
         in="fbSourceGraphic"
         result="fbSourceGraphicAlpha" />
      <feColorMatrix
         result="fbSourceGraphic"
         in="fbSourceGraphic"
         values="0"
         type="saturate"
         id="feColorMatrix7379" />
      <feColorMatrix
         id="feColorMatrix7381"
         values="0 0 0 -1 0 0 0 0 -1 0 0 0 0 -1 0 0 0 0 1 0"
         in="fbSourceGraphic"
         result="fbSourceGraphicAlpha" />
      <feColorMatrix
         result="fbSourceGraphic"
         in="fbSourceGraphic"
         values="0"
         type="saturate"
         id="feColorMatrix7383" />
      <feColorMatrix
         id="feColorMatrix7385"
         values="0 0 0 -1 0 0 0 0 -1 0 0 0 0 -1 0 0 0 0 1 0"
         in="fbSourceGraphic"
         result="fbSourceGraphicAlpha" />
      <feColorMatrix
         result="fbSourceGraphic"
         in="fbSourceGraphic"
         values="0"
         type="saturate"
         id="feColorMatrix7387" />
      <feColorMatrix
         id="feColorMatrix7389"
         values="0 0 0 -1 0 0 0 0 -1 0 0 0 0 -1 0 0 0 0 1 0"
         in="fbSourceGraphic"
         result="fbSourceGraphicAlpha" />
      <feColorMatrix
         result="fbSourceGraphic"
         in="fbSourceGraphic"
         values="0"
         type="saturate"
         id="feColorMatrix7391" />
      <feColorMatrix
         id="feColorMatrix7393"
         values="0 0 0 -1 0 0 0 0 -1 0 0 0 0 -1 0 0 0 0 1 0"
         in="fbSourceGraphic"
         result="fbSourceGraphicAlpha" />
      <feColorMatrix
         result="fbSourceGraphic"
         in="fbSourceGraphic"
         values="0"
         type="saturate"
         id="feColorMatrix7395" />
      <feColorMatrix
         id="feColorMatrix7397"
         values="0 0 0 -1 0 0 0 0 -1 0 0 0 0 -1 0 0 0 0 1 0"
         in="fbSourceGraphic"
         result="fbSourceGraphicAlpha" />
      <feColorMatrix
         result="fbSourceGraphic"
         in="fbSourceGraphic"
         values="0"
         type="saturate"
         id="feColorMatrix7399" />
      <feColorMatrix
         id="feColorMatrix7401"
         values="0 0 0 -1 0 0 0 0 -1 0 0 0 0 -1 0 0 0 0 1 0"
         in="fbSourceGraphic"
         result="fbSourceGraphicAlpha" />
      <feColorMatrix
         result="fbSourceGraphic"
         in="fbSourceGraphic"
         values="0"
         type="saturate"
         id="feColorMatrix7403" />
      <feColorMatrix
         id="feColorMatrix7405"
         values="0 0 0 -1 0 0 0 0 -1 0 0 0 0 -1 0 0 0 0 1 0"
         in="fbSourceGraphic"
         result="fbSourceGraphicAlpha" />
      <feColorMatrix
         result="fbSourceGraphic"
         in="fbSourceGraphic"
         values="0"
         type="saturate"
         id="feColorMatrix7407" />
      <feColorMatrix
         id="feColorMatrix7409"
         values="0 0 0 -1 0 0 0 0 -1 0 0 0 0 -1 0 0 0 0 1 0"
         in="fbSourceGraphic"
         result="fbSourceGraphicAlpha" />
      <feColorMatrix
         result="fbSourceGraphic"
         in="fbSourceGraphic"
         values="0"
         type="saturate"
         id="feColorMatrix7411" />
      <feColorMatrix
         id="feColorMatrix7413"
         values="0 0 0 -1 0 0 0 0 -1 0 0 0 0 -1 0 0 0 0 1 0"
         in="fbSourceGraphic"
         result="fbSourceGraphicAlpha" />
      <feColorMatrix
         in="fbSourceGraphic"
         values="0"
         type="saturate"
         id="feColorMatrix7415" />
    </filter>
    <filter
       x="0"
       y="0"
       width="1"
       height="1"
       color-interpolation-filters="sRGB"
       id="filter6574">
      <feFlood
         flood-color="rgb(128,128,128)"
         flood-opacity="0"
         result="result1"
         id="feFlood6576" />
      <feBlend
         in2="SourceGraphic"
         mode="normal"
         result="result2"
         id="feBlend6578" />
      <feComposite
         in2="SourceGraphic"
         operator="arithmetic"
         k1="0"
         k2="1"
         k3="0"
         k4="0"
         result="result3"
         id="feComposite6580" />
      <feComposite
         in2="SourceGraphic"
         operator="in"
         id="feComposite6582" />
    </filter>
    <clipPath
       id="clipPath5114">
      <path
         d="m 585.88847,420.00668 a 227.28432,216.17264 0 1 1 -454.56863,0 227.28432,216.17264 0 1 1 454.56863,0 z"
         transform="matrix(1.0843996,0,0,1.1401397,544.39562,-17.484768)"
         id="path5116"
         style="fill:#cc0000;fill-opacity:1" />
    </clipPath>
    <clipPath
       id="clipPath5114-4">
      <path
         d="m 585.88847,420.00668 a 227.28432,216.17264 0 1 1 -454.56863,0 227.28432,216.17264 0 1 1 454.56863,0 z"
         transform="matrix(1.0843996,0,0,1.1401397,544.39562,-17.484768)"
         id="path5116-0"
         style="fill:#cc0000;fill-opacity:1" />
    </clipPath>
    <radialGradient
       cx="0"
       cy="0"
       r="1"
       fx="0"
       fy="0"
       id="radialGradient4434"
       gradientUnits="userSpaceOnUse"
       gradientTransform="matrix(-121.97383,0,0,91.952423,248.63672,350.44775)"
       spreadMethod="pad">
      <stop
         id="stop4436"
         style="stop-color:#282828;stop-opacity:1"
         offset="0" />
      <stop
         id="stop4438"
         style="stop-color:#000000;stop-opacity:1"
         offset="1" />
    </radialGradient>
    <clipPath
       id="clipPath4462">
      <path
         d="m 142.312,369.999 26.147,0 0,-28.013 -26.147,0 0,28.013 z"
         id="path4464" />
    </clipPath>
    <clipPath
       id="clipPath4478">
      <path
         d="m 160.848,374.99 c -1.371,-0.064 -2.742,-0.142 -4.11,-0.24 l 0,0 c -1.371,-0.087 -2.759,-0.243 -4.119,-0.508 l 0,0 c -2.721,-0.521 -5.396,-1.511 -7.681,-3.122 l 0,0 c -2.295,-1.595 -4.109,-3.835 -5.274,-6.345 l 0,0 c -1.179,-2.513 -1.77,-5.249 -2.019,-7.982 l 0,0 c -0.498,-5.492 0.277,-10.974 1.199,-16.361 l 0,0 c 0.835,-5.406 2.282,-10.772 4.819,-15.66 l 0,0 c 2.5,-4.889 6.347,-9.16 11.168,-11.91 l 0,0 c 4.806,-2.803 10.323,-4.096 15.785,-4.686 l 0,0 c 5.489,-0.592 11.004,-0.45 16.478,-0.255 l 0,0 c 2.747,0.126 5.456,0.188 8.228,0.377 l 0,0 c 2.753,0.218 5.504,0.65 8.174,1.418 l 0,0 c 2.668,0.766 5.261,1.856 7.621,3.344 l 0,0 c 2.364,1.478 4.483,3.34 6.271,5.472 l 0,0 c 3.599,4.271 5.855,9.444 7.519,14.667 l 0,0 c 0.835,2.623 1.52,5.285 2.132,7.962 l 0,0 c 0.613,2.673 1.122,5.383 1.406,8.122 l 0,0 c 0.277,2.735 0.351,5.516 -0.078,8.254 l 0,0 c -0.422,2.719 -1.44,5.441 -3.343,7.5 l 0,0 c -1.885,2.082 -4.483,3.313 -7.087,4.135 l 0,0 c -2.626,0.795 -5.267,1.555 -7.969,2.056 l 0,0 c -10.784,1.994 -21.707,3.165 -32.663,3.704 l 0,0 c -3.162,0.126 -6.327,0.211 -9.494,0.211 l 0,0 c -2.321,0 -4.643,-0.046 -6.963,-0.153 m 9.858,-65.917 c -5.4,0.502 -10.799,1.721 -15.569,4.33 l 0,0 c -4.779,2.577 -8.658,6.691 -11.241,11.492 l 0,0 c -2.613,4.807 -4.068,10.166 -4.96,15.552 l 0,0 c -0.868,5.391 -1.641,10.875 -1.045,16.321 l 0,0 c 0.303,2.706 0.946,5.395 2.148,7.825 l 0,0 c 1.191,2.431 2.993,4.549 5.235,6.039 l 0,0 c 2.234,1.507 4.835,2.388 7.482,2.883 l 0,0 c 2.652,0.489 5.398,0.524 8.125,0.656 l 0,0 c 5.461,0.185 10.93,0.19 16.394,-0.021 l 0,0 c 5.464,-0.187 10.926,-0.533 16.373,-1.051 l 0,0 c 5.445,-0.518 10.885,-1.18 16.258,-2.193 l 0,0 c 2.687,-0.489 5.335,-1.194 7.938,-2.018 l 0,0 c 2.578,-0.837 5.1,-2.07 6.904,-4.1 l 0,0 c 1.824,-2.007 2.788,-4.651 3.179,-7.32 l 0,0 c 0.398,-2.684 0.302,-5.427 0.003,-8.129 l 0,0 c -0.315,-2.707 -0.851,-5.382 -1.497,-8.037 l 0,0 c -0.642,-2.655 -1.357,-5.292 -2.217,-7.878 l 0,0 C 222.5,328.27 220.21,323.23 216.709,319.107 l 0,0 c -1.745,-2.056 -3.8,-3.839 -6.089,-5.252 l 0,0 c -2.285,-1.422 -4.795,-2.461 -7.393,-3.192 l 0,0 c -2.601,-0.722 -5.284,-1.153 -7.986,-1.376 l 0,0 c -2.693,-0.189 -5.462,-0.26 -8.185,-0.391 l 0,0 c -2.581,-0.106 -5.162,-0.183 -7.74,-0.183 l 0,0 c -2.878,0 -5.751,0.097 -8.61,0.36"
         id="path4480" />
    </clipPath>
    <linearGradient
       x1="0"
       y1="0"
       x2="1"
       y2="0"
       id="linearGradient4486"
       gradientUnits="userSpaceOnUse"
       gradientTransform="matrix(80.044617,-63.02713,-63.02713,-80.044601,137.32813,380.2832)"
       spreadMethod="pad">
      <stop
         id="stop4488"
         style="stop-color:#323232;stop-opacity:1"
         offset="0" />
      <stop
         id="stop4490"
         style="stop-color:#1e1414;stop-opacity:1"
         offset="1" />
    </linearGradient>
    <clipPath
       id="clipPath4498">
      <path
         d="M 0,500 500,500 500,0 0,0 0,500 z"
         id="path4500" />
    </clipPath>
    <clipPath
       id="clipPath4510">
      <path
         d="m 329.333,375.491 c -5.62,-0.033 -11.235,-0.246 -16.836,-0.664 l 0,0 c -5.602,-0.411 -11.191,-0.962 -16.752,-1.724 l 0,0 c -5.56,-0.768 -11.114,-1.651 -16.542,-3.102 l 0,0 c -2.746,-0.695 -5.113,-2.549 -6.68,-4.885 l 0,0 c -1.602,-2.336 -2.508,-5.065 -3.097,-7.809 l 0,0 c -1.128,-5.536 -0.953,-11.237 -0.397,-16.824 l 0,0 c 0.475,-5.593 1.943,-11.253 4.99,-16.094 l 0,0 c 2.997,-4.873 7.566,-8.657 12.65,-11.159 l 0,0 c 5.103,-2.521 10.673,-3.923 16.266,-4.643 l 0,0 c 5.604,-0.718 11.262,-0.786 16.879,-0.549 l 0,0 c 5.607,0.215 11.275,0.675 16.745,2.133 l 0,0 c 5.45,1.431 10.74,3.923 14.867,7.837 l 0,0 c 4.164,3.872 6.94,9.047 8.398,14.476 l 0,0 c 1.517,5.454 1.692,11.124 1.912,16.72 l 0,0 c 0.069,2.808 0.031,5.623 -0.209,8.429 l 0,0 c -0.244,2.8 -0.675,5.618 -1.685,8.285 l 0,0 c -0.51,1.326 -1.18,2.612 -2.093,3.732 l 0,0 c -0.905,1.122 -2.058,2.052 -3.343,2.711 l 0,0 c -2.594,1.322 -5.481,1.665 -8.248,2.025 l 0,0 c -1.402,0.161 -2.759,0.357 -4.172,0.546 l 0,0 c -1.407,0.168 -2.812,0.275 -4.219,0.358 l 0,0 c -2.458,0.141 -4.916,0.205 -7.373,0.205 l 0,0 c -0.353,0 -0.707,-0.002 -1.061,-0.004 m -26.27,-65.925 c -5.51,0.747 -10.986,2.079 -15.961,4.537 l 0,0 c -4.976,2.422 -9.349,6.1 -12.323,10.767 l 0,0 c -3.022,4.659 -4.513,10.145 -5.132,15.685 l 0,0 c -0.682,5.535 -0.97,11.191 0.036,16.701 l 0,0 c 0.513,2.738 1.419,5.444 2.974,7.768 l 0,0 c 1.532,2.323 3.853,4.173 6.572,4.885 l 0,0 c 10.887,2.739 22.129,3.694 33.304,4.326 l 0,0 c 5.598,0.27 11.201,0.463 16.8,0.437 l 0,0 c 2.799,-0.022 5.598,-0.062 8.388,-0.206 l 0,0 c 1.395,-0.075 2.788,-0.174 4.169,-0.332 l 0,0 c 1.368,-0.177 2.788,-0.374 4.174,-0.527 l 0,0 c 2.767,-0.332 5.582,-0.622 8.043,-1.837 l 0,0 c 1.22,-0.602 2.31,-1.452 3.185,-2.499 l 0,0 c 0.878,-1.045 1.544,-2.266 2.062,-3.545 l 0,0 c 1.024,-2.575 1.5,-5.355 1.785,-8.128 l 0,0 c 0.271,-2.783 0.318,-5.586 0.27,-8.386 l 0,0 c -0.149,-5.589 -0.388,-11.248 -1.942,-16.63 l 0,0 c -1.494,-5.366 -4.277,-10.433 -8.394,-14.196 l 0,0 c -4.098,-3.789 -9.311,-6.167 -14.696,-7.512 l 0,0 c -5.408,-1.369 -11.006,-1.75 -16.597,-1.947 l 0,0 c -1.612,-0.059 -3.225,-0.093 -4.837,-0.093 l 0,0 c -3.977,0 -7.949,0.204 -11.88,0.732"
         id="path4512" />
    </clipPath>
    <linearGradient
       x1="0"
       y1="0"
       x2="1"
       y2="0"
       id="linearGradient4518"
       gradientUnits="userSpaceOnUse"
       gradientTransform="matrix(-86.979507,-53.574203,-53.574203,86.979507,368.25879,376.54395)"
       spreadMethod="pad">
      <stop
         id="stop4520"
         style="stop-color:#323232;stop-opacity:1"
         offset="0" />
      <stop
         id="stop4522"
         style="stop-color:#1e1414;stop-opacity:1"
         offset="1" />
    </linearGradient>
    <clipPath
       id="clipPath4538">
      <path
         d="m 332.657,369.999 26.148,0 0,-28.013 -26.148,0 0,28.013 z"
         id="path4540" />
    </clipPath>
  </defs>
  <metadata
     id="metadata7">
    <rdf:RDF>
      <cc:Work
         rdf:about="">
        <dc:format>image/svg+xml</dc:format>
        <dc:type
           rdf:resource="http://purl.org/dc/dcmitype/StillImage" />
        <dc:title></dc:title>
      </cc:Work>
    </rdf:RDF>
  </metadata>
  <a
     xlink:href="#"
     target="_top"
     transform="matrix(0.99977884,0,0,1.0014451,-338.69578,-720.09192)"
     id="a157">
    <g
       transform="matrix(1.2481962,0,0,1.2481962,599.04168,959.53294)"
       id="Github"
       style="fill:none;stroke:none">
      <path
         d="m 0.3,30 c 0,-16.6 13.5,-30 30,-30 16.6,0 30,13.4 30,30 0,16.6 -13.5,30 -30,30 -16.5,0 -30,-13.4 -30,-30 z m 0,0"
         id="path4023"
         style="fill:#333333" />
      <path
         d="m 18.5,31.9 c 1.4,2.5 4.1,4.1 8.7,4.5 -0.7,0.5 -1.4,1.4 -1.6,2.5 -0.8,0.5 -2.5,0.7 -3.8,0.3 -1.8,-0.6 -2.5,-4.1 -5.2,-3.6 -0.6,0.1 -0.5,0.5 0,0.8 0.8,0.5 1.6,1.2 2.2,2.6 0.5,1.1 1.4,3 4.5,3 1.2,0 2.1,-0.1 2.1,-0.1 0,0 0,2.7 0,3.8 0,1.2 -1.7,1.6 -1.7,2.2 0,0.2 0.6,0.3 1,0.3 0.9,0 2.7,-0.7 2.7,-2 0,-1 0,-4.4 0,-5 0,-1.3 0.7,-1.7 0.7,-1.7 0,0 0.1,6.9 -0.2,7.9 -0.3,1.1 -0.8,0.9 -0.8,1.4 0,0.7 2.2,0.2 3,-1.4 0.6,-1.2 0.3,-8 0.3,-8 l 0.6,0 c 0,0 0,3.1 0,4.5 0,1.5 -0.1,3.3 0.8,4.2 0.6,0.6 2.5,1.6 2.5,0.7 0,-0.5 -1,-1 -1,-2.4 l 0,-6.7 c 0.8,0 0.7,2.2 0.7,2.2 l 0.1,4.1 c 0,0 -0.2,1.5 1.6,2.1 0.6,0.2 2,0.3 2.1,-0.1 0.1,-0.4 -1.7,-0.9 -1.7,-2.1 0,-0.7 0,-1.1 0,-4.2 0,-3.1 -0.4,-4.2 -1.9,-5.1 4.5,-0.5 7.3,-1.6 8.7,-4.5 0.1,0 0.6,-1.4 0.5,-1.4 0.3,-1.1 0.5,-2.4 0.5,-4 0,-4.2 -2.1,-5.7 -2.5,-6.4 0.6,-3.2 -0.1,-4.6 -0.4,-5.1 -1.2,-0.4 -4,1 -5.6,2.1 -2.6,-0.7 -8,-0.7 -10,0.2 -3.8,-2.6 -5.7,-2.2 -5.7,-2.2 0,0 -1.3,2.3 -0.3,5.6 -1.2,1.5 -2.2,2.6 -2.2,5.5 0,1.6 0.2,3.1 0.6,4.4 -0.1,0 0.6,1.4 0.6,1.4 z m 0,0"
         id="path4025"
         style="fill:#ffffff" />
      <path
         d="m 60.4,30 c 0,16.6 -13.5,30 -30,30 -6.2,0 -11.9,-1.8 -16.6,-5 L 48.2,5.8 c 7.4,5.5 12.2,14.3 12.2,24.2 z m 0,0"
         id="path4027"
         style="fill:#000000;fill-opacity:0.07999998" />
    </g>
  </a>
  <g
     transform="matrix(1.2481963,0,0,1.25,469.55144,240.00001)"
     id="Mail"
     style="fill:none;stroke:none">
    <path
       d="m 0.2283237,30 c 0,-16.568543 13.4508663,-30 30.0433523,-30 16.592487,0 30.043353,13.431457 30.043353,30 0,16.568543 -13.450866,30 -30.043353,30 C 13.67919,60 0.2283237,46.568543 0.2283237,30 z m 0,0"
       id="path3199-0"
       style="fill:#ffffff" />
    <path
       d="M 35.622406,31.638401 48,20 48,40.576426 z M 14,20 26.377328,31.637149 14,40.576426 z M 31,35.984489 33.954813,33.206522 48,42 14,42 28.044855,33.206522 z M 46.98,20 31,32.45493 15.02,20 z m 0,0"
       id="path3201-9"
       style="fill:#333333" />
    <path
       d="m 60.315029,30 c 0,16.568543 -13.450866,30 -30.043353,30 -6.15376,0 -11.875393,-1.847487 -16.638863,-5.017225 L 48.057372,5.819411 C 55.491134,11.28065 60.315029,20.077797 60.315029,30 z m 0,0"
       id="path3203-6"
       style="fill:#000000;fill-opacity:0.07999998" />
  </g>
  <a
     xlink:href="#"
     target="_top"
     transform="matrix(0.99922265,0,0,0.99922265,163.90276,-718.64477)"
     id="a136">
    <g
       transform="matrix(1.2468164,0,0,1.2468164,499.32683,959.39055)"
       id="Google +"
       style="fill:none;stroke:none">
      <path
         d="m 0.1,30 c 0,-16.6 13.5,-30 30,-30 16.6,0 30,13.4 30,30 0,16.6 -13.5,30 -30,30 -16.5,0 -30,-13.4 -30,-30 z m 0,0"
         id="path3942"
         style="fill:#d34836" />
      <path
         d="m 59.3,23.1 -7.1,0 0,7.9 -3.3,0 0,-7.9 -7.8,0 0,-3.3 7.8,0 0,-7.8 3.3,0 0,7.8 6,0 c 0.4,1.1 0.8,2.2 1.1,3.3 z m 0,0"
         id="path3944"
         style="fill:#ffffff" />
      <path
         d="m 8.4,49.4 c 0.8,-1.4 2.1,-2.8 4.1,-3.9 4.4,-2.7 10.2,-3 13.4,-3.2 -1,-1.3 -2.1,-2.6 -2.1,-4.8 0,-1.2 0.4,-1.9 0.7,-2.7 C 23.7,34.9 23,35 22.3,35 14.9,35 10.7,29.5 10.7,24 c 0,-3.2 1.5,-6.8 4.5,-9.4 4,-3.3 8.8,-3.8 12.5,-3.8 l 14.4,0 -4.5,2.5 -4.3,0 c 1.6,1.3 5,4.1 5,9.4 0,5.2 -2.9,7.6 -5.9,9.9 -0.9,0.9 -2,1.9 -2,3.4 0,1.5 1,2.4 1.8,3 l 2.5,2 c 3.1,2.6 5.9,5 5.9,9.8 0,3.2 -1.5,6.4 -4.4,8.8 -1.6,0.3 -3.2,0.4 -4.8,0.4 2.9,-1.3 4.5,-3.6 4.5,-6.5 0,-3.6 -2.3,-5.5 -7.6,-9.2 -0.6,-0.1 -0.9,-0.1 -1.6,-0.1 -0.6,0 -4.4,0.1 -7.3,1.1 -1.5,0.6 -6,2.2 -6,7.2 0,0.5 0.1,1.1 0.2,1.6 C 6,48.6 9.2,49.4 8.4,49.4 z M 32,25.9 C 32,20.8 29,13 23.2,13 c -1.8,0 -3.8,0.9 -4.9,2.3 -1.2,1.5 -1.5,3.4 -1.5,5.2 0,4.7 2.7,12.5 8.8,12.5 1.7,0 3.6,-0.9 4.8,-2 1.6,-1.6 1.7,-3.8 1.7,-5.1 z m 0,0"
         id="path3946"
         style="fill:#ffffff" />
      <path
         d="m 60.3,30.2 c 0,16.6 -13.5,30 -30,30 -6.2,0 -11.9,-1.8 -16.6,-5 L 48,6 c 7.4,5.5 12.3,14.3 12.3,24.2 z m 0,0"
         id="path3948"
         style="fill:#000000;fill-opacity:0.07999998" />
    </g>
  </a>
  <a
     xlink:href="#"
     target="_top"
     transform="matrix(1.0014451,0,0,1.0014451,-39.906724,-720.91955)"
     id="a143">
    <g
       transform="matrix(1.2481962,0,0,1.2481962,398.89919,959.53293)"
       id="LinkedIN"
       style="fill:none;stroke:none">
      <path
         d="m 0.5,30 c 0,-16.6 13.4,-30 30,-30 16.6,0 30,13.4 30,30 0,16.6 -13.4,30 -30,30 -16.6,0 -30,-13.4 -30,-30 z m 0,0"
         id="path3960"
         style="fill:#007bb6" />
      <path
         d="m 22.8,23.7 -6.8,0 0,20.4 6.8,0 0,-20.4 z m 0,0"
         id="path3962"
         style="fill:#ffffff" />
      <path
         d="m 23.3,17.4 c 0,-2 -1.5,-3.5 -3.8,-3.5 -2.3,0 -3.8,1.5 -3.8,3.5 0,2 1.5,3.5 3.8,3.5 l 0,0 c 2.4,0 3.8,-1.6 3.8,-3.5 z m 0,0"
         id="path3964"
         style="fill:#ffffff" />
      <path
         d="m 47.4,32.4 c 0,-6.3 -3.4,-9.2 -7.8,-9.2 -3.6,0 -5.2,2 -6.1,3.4 l 0,-2.9 -6.8,0 c 0.1,1.9 0,20.4 0,20.4 l 6.8,0 0,-11.4 c 0,-0.6 0,-1.2 0.2,-1.7 0.5,-1.2 1.6,-2.5 3.5,-2.5 2.5,0 3.4,1.9 3.4,4.6 l 0,10.9 6.8,0 0,-11.7 z m 0,0"
         id="path3966"
         style="fill:#ffffff" />
      <path
         d="m 60.5,30 c 0,16.6 -13.4,30 -30,30 -6.2,0 -11.9,-1.8 -16.6,-5 L 48.3,5.8 c 7.4,5.5 12.2,14.3 12.2,24.2 z m 0,0"
         id="path3968"
         style="fill:#000000;fill-opacity:0.07999998" />
    </g>
  </a>
  <a
     xlink:href="https://twitter.com/divyun"
     target="_blank"
     transform="matrix(0.99977876,0,0,1.0014451,-137.69831,-720.91956)"
     id="a151">
    <g
       transform="matrix(1.2481963,0,0,1.2481963,299.46917,959.53293)"
       id="Twitter"
       style="fill:none;stroke:none">
      <path
         d="M 0,30 C 0,13.4 13.5,0 30,0 46.6,0 60,13.4 60,30 60,46.6 46.5,60 30,60 13.5,60 0,46.6 0,30 z m 0,0"
         id="path4002"
         style="fill:#4099ff" />
      <path
         d="m 29.3,23.9 0.1,1 -1,-0.1 c -3.8,-0.5 -7.2,-2.1 -10,-4.9 l -1.4,-1.4 -0.4,1 c -0.8,2.3 -0.3,4.7 1.3,6.3 0.8,0.9 0.7,1 -0.8,0.5 -0.5,-0.2 -0.9,-0.3 -1,-0.2 -0.1,0.1 0.4,2.1 0.8,2.8 0.5,1.1 1.7,2.1 2.9,2.7 l 1,0.5 -1.2,0 c -1.2,0 -1.2,0 -1.1,0.5 0.4,1.4 2.1,2.8 3.9,3.5 l 1.3,0.4 -1.1,0.7 c -1.7,1 -3.7,1.5 -5.6,1.6 -0.9,0 -1.7,0.1 -1.7,0.2 0,0.2 2.6,1.4 4,1.9 4.5,1.4 9.8,0.8 13.8,-1.6 2.8,-1.7 5.7,-5 7,-8.2 0.7,-1.7 1.4,-4.9 1.4,-6.4 0,-1 0.1,-1.1 1.2,-2.3 0.7,-0.7 1.3,-1.4 1.5,-1.6 0.2,-0.4 0.2,-0.4 -0.9,0 -1.8,0.6 -2,0.6 -1.2,-0.4 0.7,-0.7 1.4,-1.9 1.4,-2.3 0,-0.1 -0.3,0 -0.7,0.2 -0.4,0.2 -1.2,0.5 -1.8,0.7 l -1.1,0.4 -1,-0.7 c -0.6,-0.4 -1.4,-0.8 -1.8,-0.9 -1.1,-0.3 -2.7,-0.3 -3.7,0.1 -2.6,1 -4.3,3.4 -4.1,6.1 z m 0,0"
         id="path4004"
         style="fill:#ffffff" />
      <path
         d="m 60.1,30 c 0,16.6 -13.5,30 -30,30 -6.2,0 -11.9,-1.8 -16.7,-5 L 47.8,5.8 c 7.5,5.5 12.3,14.3 12.3,24.2 z m 0,0"
         id="path4006"
         style="fill:#000000;fill-opacity:0.07999998" />
    </g>
  </a>
  <flowRoot
     transform="translate(-37.155733,-29.758212)"
     id="flowRoot14303"
     xml:space="preserve"
     style="font-size:40px;font-style:normal;font-weight:normal;line-height:125%;letter-spacing:0px;word-spacing:0px;fill:#000000;fill-opacity:1;stroke:none;font-family:Sans"><flowRegion
       id="flowRegion14305"><rect
         width="381.79999"
         height="107.1"
         x="250.5"
         y="219.8"
         id="rect14307" /></flowRegion><flowPara
       id="flowPara14309" /></flowRoot>  <a
     xlink:href="/arsenal"
     target="_top"
     transform="translate(-11.704295,-625.51327)"
     id="a94">
    <g
       transform="matrix(1.6342863,0,0,1.6342863,-272.6678,981.32872)"
       id="g7417">
      <path
         d="M 161.2,11.1 C 123.6,11.1 83.3,16.7 46.9,30.5 9.1,181.1 37,291 161.5,367.9 l -0.2,-356.8 0,0 z m 0.2,356.8 C 285.9,291 313.7,181 276,30.4 239.5,16.7 199.2,11.1 161.6,11.1 l -0.2,356.8 0,0 z"
         transform="matrix(0.35598405,0,0,0.35598405,323.80503,-216.08499)"
         id="path3171"
         style="fill:#ffffff;stroke:#ffffff;stroke-width:0.79299998;stroke-miterlimit:282;filter:url(#filter4677)" />
      <path
         d="M 161.4,11.1 C 123.6,11.1 85.3,16.8 54.3,27.6 15.2,185.4 46.6,292 161.5,364.8 l 0,-353.8 0,0 z"
         transform="matrix(0.35598405,0,0,0.35598405,323.80503,-216.08499)"
         id="path3173"
         style="fill:#ff0b0b;stroke:#ff0b0b;stroke-width:0.79299998;stroke-miterlimit:282;filter:url(#filter4677)" />
      <path
         d="m 161.5,11.1 c 37.8,0 76.1,5.7 107.2,16.5 39.1,157.8 7.7,264.4 -107.2,337.2 l 0,-353.8 0,0 z"
         transform="matrix(0.35598405,0,0,0.35598405,323.80503,-216.08499)"
         id="path3175"
         style="fill:#f3000b;stroke:#f3000b;stroke-width:0.79299998;stroke-miterlimit:282;filter:url(#filter4677)" />
      <path
         d="m 112.6,249.2 c -16.7,11.4 -30,15.6 -45.4,19.6 l -9.3,-14.5 c 14.2,-7.2 28.8,-17.2 43.6,-31.6 1.2,14 7.8,24 11.1,26.4 l 0,0 z"
         transform="matrix(0.35598405,0,0,0.35598405,323.80503,-216.08499)"
         id="path3177"
         style="fill:#ffffff;filter:url(#filter4677)" />
      <path
         d="M 110.3,248.6 C 94.5,259.5 72.4,267 47.2,270.7 l -5.1,-7.8 c 21.6,-8.1 42.5,-20.2 58.7,-37.1 2.4,10.9 6.2,18.1 9.6,22.8 l 0,0 z"
         transform="matrix(0.35598405,0,0,0.35598405,323.80503,-216.08499)"
         id="path3179"
         style="fill:#ad9052;filter:url(#filter4677)" />
      <path
         d="m 68.2,182.2 c 0,6.1 -4.9,11 -11,11 -6.1,0 -11,-4.9 -11,-11 l 0,0 c 0,-6.1 4.9,-11 11,-11 6.1,0 11,4.9 11,11 l 0,0 z"
         transform="matrix(0.35598405,0,0,0.35598405,323.80503,-216.08499)"
         id="path3181"
         style="fill:#ffffff;filter:url(#filter4677)" />
      <path
         d="M 67,160.6 V 202 h 32.6 c 2.1,-13.9 10,-28.6 27.9,-41.4 H 67"
         transform="matrix(0.35598405,0,0,0.35598405,323.80503,-216.08499)"
         id="path3183"
         style="fill:#ffffff;filter:url(#filter4677)" />
      <path
         d="M 68.3,202 C 61,202.1 55,193 54.9,181.5 c -0.1,-11.4 5.8,-20.8 13.1,-21 0.1,0 0.1,0 0.2,0"
         transform="matrix(0.35598405,0,0,0.35598405,323.80503,-216.08499)"
         id="path3185"
         style="fill:#ffffff;filter:url(#filter4677)" />
      <path
         d="m 63.6,182.2 c 0,4.7 -3.4,8.5 -7.6,8.5 -4.2,0 -7.6,-3.8 -7.6,-8.5 l 0,0 c 0,-4.7 3.4,-8.5 7.6,-8.5 4.2,0 7.6,3.8 7.6,8.5 l 0,0 z"
         transform="matrix(0.35598405,0,0,0.35598405,323.80503,-216.08499)"
         id="path3187"
         style="fill:#ad9052;filter:url(#filter4677)" />
      <path
         d="M 67.9,162.8 V 200 h 32.4 c 2.6,-12.4 8.8,-25.5 24.5,-37.2 H 67.9"
         transform="matrix(0.35598405,0,0,0.35598405,323.80503,-216.08499)"
         id="path3189"
         style="fill:#ad9052;filter:url(#filter4677)" />
      <path
         d="m 69.1,200 c -6.8,0.1 -12.5,-8.1 -12.6,-18.4 -0.1,-10.3 5.4,-18.7 12.3,-18.9 0.1,0 0.1,0 0.2,0"
         transform="matrix(0.35598405,0,0,0.35598405,323.80503,-216.08499)"
         id="path3191"
         style="fill:#ad9052;filter:url(#filter4677)" />
      <path
         d="m 223.3,211.7 c 0,34.6 -28,62.5 -62.5,62.5 -34.5,0 -62.5,-28 -62.5,-62.5 l 0,0 c 0,-34.6 28,-62.5 62.5,-62.5 34.5,0 62.5,28 62.5,62.5 l 0,0 0,0 z"
         transform="matrix(0.35598405,0,0,0.35598405,323.80503,-216.08499)"
         id="path3193"
         style="fill:#ffffff;filter:url(#filter4677)" />
      <path
         d="m 220.1,211.7 c 0,32.7 -26.5,59.3 -59.2,59.3 -32.7,0 -59.2,-26.5 -59.2,-59.3 l 0,0 c 0,-32.7 26.5,-59.3 59.2,-59.3 32.7,0 59.2,26.5 59.2,59.3 l 0,0 0,0 z"
         transform="matrix(0.35598405,0,0,0.35598405,323.80503,-216.08499)"
         id="path3195"
         style="fill:#ad9052;filter:url(#filter4677)" />
      <path
         d="m 210.2,211.7 c 0,27.3 -22.1,49.4 -49.4,49.4 -27.3,0 -49.4,-22.1 -49.4,-49.4 l 0,0 c 0,-27.3 22.1,-49.4 49.4,-49.4 27.3,0 49.4,22.1 49.4,49.4 l 0,0 0,0 z"
         transform="matrix(0.35598405,0,0,0.35598405,323.80503,-216.08499)"
         id="path3197"
         style="fill:#ffffff;filter:url(#filter4677)" />
      <path
         d="m 207,211.7 c 0,25.5 -20.7,46.1 -46.1,46.1 -25.4,0 -46.1,-20.6 -46.1,-46.1 l 0,0 c 0,-25.5 20.7,-46.1 46.1,-46.1 25.5,0 46.1,20.6 46.1,46.1 l 0,0 0,0 z"
         transform="matrix(0.35598405,0,0,0.35598405,323.80503,-216.08499)"
         id="path3199"
         style="fill:#ad9052;filter:url(#filter4677)" />
      <path
         d="m 180.1,211.7 c 0,10.6 -8.6,19.2 -19.2,19.3 -10.6,0 -19.3,-8.6 -19.3,-19.2 v 0 c 0,-10.6 8.6,-19.2 19.2,-19.2 10.6,0 19.2,8.6 19.2,19.2 0,0 0,0 0,0 l 0,0 z"
         transform="matrix(0.35598405,0,0,0.35598405,323.80503,-216.08499)"
         id="path3201"
         style="fill:#ffffff;filter:url(#filter4677)" />
      <path
         d="m 177.8,211.7 c 0,9.4 -7.6,17 -16.9,17 -9.4,0 -17,-7.6 -17,-16.9 v 0 c 0,-9.4 7.6,-17 17,-17 9.4,0 17,7.6 17,16.9 v 0 l 0,0 z"
         transform="matrix(0.35598405,0,0,0.35598405,323.80503,-216.08499)"
         id="path3203"
         style="fill:#ad9052;filter:url(#filter4677)" />
      <path
         d="m 169.6,211.7 c 0,4.8 -3.9,8.7 -8.7,8.7 -4.8,0 -8.7,-3.9 -8.7,-8.7 l 0,0 c 0,-4.8 3.9,-8.7 8.7,-8.7 4.8,0 8.7,3.9 8.7,8.7 l 0,0 0,0 z"
         transform="matrix(0.35598405,0,0,0.35598405,323.80503,-216.08499)"
         id="path3205"
         style="fill:#ffffff;filter:url(#filter4677)" />
      <path
         d="m 167.1,211.7 c 0,3.5 -2.8,6.3 -6.3,6.3 -3.5,0 -6.3,-2.8 -6.3,-6.3 l 0,0 c 0,-3.5 2.8,-6.3 6.3,-6.3 3.5,0 6.3,2.8 6.3,6.3 l 0,0 0,0 z"
         transform="matrix(0.35598405,0,0,0.35598405,323.80503,-216.08499)"
         id="path3207"
         style="fill:#ad9052;filter:url(#filter4677)" />
      <rect
         width="13.1"
         height="30.6"
         x="154.2"
         y="164.5"
         transform="matrix(0.35598405,0,0,0.35598405,323.80503,-216.08499)"
         id="rect3209"
         style="fill:#ffffff;filter:url(#filter4677)" />
      <rect
         width="9"
         height="39"
         x="156.2"
         y="160.10001"
         transform="matrix(0.35598405,0,0,0.35598405,323.80503,-216.08499)"
         id="rect3211"
         style="fill:#ad9052;filter:url(#filter4677)" />
      <polygon
         points="204.6,192.8 178.9,209.5 171.8,198.5 197.4,181.8 "
         transform="matrix(0.35598405,0,0,0.35598405,323.80503,-216.08499)"
         id="polygon3213"
         style="fill:#ffffff;filter:url(#filter4677)" />
      <polygon
         points="207.1,188.7 174.5,210 169.6,202.3 202.2,181.1 "
         transform="matrix(0.35598405,0,0,0.35598405,323.80503,-216.08499)"
         id="polygon3215"
         style="fill:#ad9052;filter:url(#filter4677)" />
      <polygon
         points="149.4,225.3 123.6,241.7 116.5,230.6 142.4,214.2 "
         transform="matrix(0.35598405,0,0,0.35598405,323.80503,-216.08499)"
         id="polygon3217"
         style="fill:#ffffff;filter:url(#filter4677)" />
      <polygon
         points="151.7,221.2 118.8,242.1 113.9,234.4 146.8,213.5 "
         transform="matrix(0.35598405,0,0,0.35598405,323.80503,-216.08499)"
         id="polygon3219"
         style="fill:#ad9052;filter:url(#filter4677)" />
      <rect
         width="13.1"
         height="30.6"
         x="154.2"
         y="229.3"
         transform="matrix(0.35598405,0,0,0.35598405,323.80503,-216.08499)"
         id="rect3221"
         style="fill:#ffffff;filter:url(#filter4677)" />
      <rect
         width="9"
         height="38.900002"
         x="156.2"
         y="224.89999"
         transform="matrix(0.35598405,0,0,0.35598405,323.80503,-216.08499)"
         id="rect3223"
         style="fill:#ad9052;filter:url(#filter4677)" />
      <path
         d="m 148,226 c 1.8,1.5 3.7,2.8 6.2,3.9 l -0.1,27.3 c -12.4,-1.6 -21.8,-7.7 -28.9,-16.4 L 148,226"
         transform="matrix(0.35598405,0,0,0.35598405,323.80503,-216.08499)"
         id="path3225"
         style="fill:#ff0b0b;stroke:#ff0b0b;stroke-width:0.31150001;stroke-miterlimit:282;filter:url(#filter4677)" />
      <path
         d="m 173.6,226.1 c -1.8,1.5 -3.7,2.8 -6.2,3.8 l 0,27.3 c 12.4,-1.6 21.8,-7.7 28.9,-16.4 L 173.6,226"
         transform="matrix(0.35598405,0,0,0.35598405,323.80503,-216.08499)"
         id="path3227"
         style="fill:#f3000b;stroke:#f3000b;stroke-width:0.31150001;stroke-miterlimit:282;filter:url(#filter4677)" />
      <path
         d="m 179.8,214.6 27.1,-3.3 c 0.2,6.8 -1.4,12.7 -3.7,18.5 l -23.5,-15.2"
         transform="matrix(0.35598405,0,0,0.35598405,323.80503,-216.08499)"
         id="path3229"
         style="fill:#f3000b;filter:url(#filter4677)" />
      <path
         d="m 179.9,214.5 c 0.1,-0.4 0.1,-0.8 0.2,-2.1 l 26.8,-3.5 c 0.1,1.2 0,1.7 0,2.3 l -27,3.3 0,0 z"
         transform="matrix(0.35598405,0,0,0.35598405,323.80503,-216.08499)"
         id="path3231"
         style="fill:#ffffff;stroke:#ffffff;stroke-width:0.31150001;stroke-miterlimit:282;filter:url(#filter4677)" />
      <path
         d="m 219.5,192 h 35.1 c -1.1,4.2 -2.2,8.4 -7.2,10.3 -8.1,3 -24.8,5.9 -24.8,5.9 -0.3,-4.6 -1.3,-10.8 -3.1,-16.2 l 0,0 z"
         transform="matrix(0.35598405,0,0,0.35598405,323.80503,-216.08499)"
         id="path3233"
         style="fill:#ffffff;filter:url(#filter4677)" />
      <path
         d="m 195,160 91.7,0.1 -3.2,33.5 -62.6,3.3 c -3.4,-15 -14.8,-29.3 -25.8,-36.9 l 0,0 z"
         transform="matrix(0.35598405,0,0,0.35598405,323.80503,-216.08499)"
         id="path3235"
         style="fill:#ffffff;filter:url(#filter4677)" />
      <path
         d="m 198.3,162.4 117.1,0.1 -4.5,27.3 -90.9,4.5 c -3.6,-13.6 -11.8,-23.5 -21.7,-31.9 l 0,0 z"
         transform="matrix(0.35598405,0,0,0.35598405,323.80503,-216.08499)"
         id="path3237"
         style="fill:#ad9052;filter:url(#filter4677)" />
      <path
         d="m 219.5,192 h 32.3 c -1.1,3.7 -1.8,7.1 -6.6,8.7 -7.6,2.7 -22.8,4.8 -22.8,4.8 -0.6,-4.4 -1.6,-8.9 -3,-13.6 l 0,0 z"
         transform="matrix(0.35598405,0,0,0.35598405,323.80503,-216.08499)"
         id="path3239"
         style="fill:#ad9052;filter:url(#filter4677)" />
      <polygon
         points="124.9,179.3 150.5,196.1 143.3,207.1 117.7,190.3 "
         transform="matrix(0.35598405,0,0,0.35598405,323.80503,-216.08499)"
         id="polygon3257"
         style="fill:#ffffff;filter:url(#filter4677)" />
      <polygon
         points="120.3,178.9 152.8,200.3 147.8,207.9 115.3,186.5 "
         transform="matrix(0.35598405,0,0,0.35598405,323.80503,-216.08499)"
         id="polygon3259"
         style="fill:#ad9052;filter:url(#filter4677)" />
      <polygon
         points="179.6,214.2 205.2,231 198,242 172.4,225.2 "
         transform="matrix(0.35598405,0,0,0.35598405,323.80503,-216.08499)"
         id="polygon3261"
         style="fill:#ffffff;filter:url(#filter4677)" />
      <polygon
         points="175,213.9 207.5,235.2 202.5,242.8 170,221.5 "
         transform="matrix(0.35598405,0,0,0.35598405,323.80503,-216.08499)"
         id="polygon3263"
         style="fill:#ad9052;filter:url(#filter4677)" />
    </g>
  </a>
  <g
     id="g8317">
    <text
       x="719.12732"
       y="19.128717"
       transform="scale(0.90993683,1.0989774)"
       id="text3327"
       xml:space="preserve"
       style="font-size:19.97723579px;font-style:normal;font-variant:normal;font-weight:500;font-stretch:normal;text-align:center;line-height:100%;letter-spacing:0px;word-spacing:0px;text-anchor:middle;fill:#8f5902;fill-opacity:1;stroke:none;font-family:Century Schoolbook L;-inkscape-font-specification:Century Schoolbook L Medium"><tspan
         x="719.94153"
         y="19.128717"
         dx="0 0 0 0 0 0 0 0 0 0 0 0 0 0 0 0 0 0"
         id="tspan14301"
         style="font-size:12.6430397px;font-style:normal;font-variant:normal;font-weight:bold;font-stretch:normal;line-height:100%;letter-spacing:0.63534021px;fill:#5c3566;font-family:Sans;-inkscape-font-specification:Sans Bold"><tspan
   id="tspan7847"
   style="font-size:16.85738564px;fill:#5c3566">D</tspan>IVYUN <tspan
   id="tspan7849"
   style="font-size:16.85738564px;fill:#5c3566">R</tspan>AJE <tspan
   id="tspan7851"
   style="font-size:16.85738564px;fill:#5c3566">V</tspan>AID, THE S<tspan
   id="tspan7855"
   style="font-size:16.85738564px;fill:#5c3566">X<tspan
   id="tspan7863"
   style="font-size:12.6430397px;fill:#5c3566">E</tspan> G</tspan>OONER &amp;<tspan
   id="tspan7865"
   style="font-size:16.85738564px;fill:#5c3566"> P</tspan>OLYGLOT <tspan
   id="tspan7867"
   style="font-size:16.85738564px;fill:#5c3566">P</tspan>ROGRAMMER</tspan></text>
    <text
       x="-22.195135"
       y="207.86371"
       transform="scale(0.9926381,1.0074165)"
       id="text3321"
       xml:space="preserve"
       style="font-size:280.49526978px;font-style:normal;font-weight:normal;line-height:125%;letter-spacing:0px;word-spacing:0px;fill:#2e3436;fill-opacity:1;stroke:none;font-family:Sans"><tspan
         x="-22.195135"
         y="207.86371"
         id="tspan3323"
         style="font-style:normal;font-variant:normal;font-weight:normal;font-stretch:normal;fill:#2e3436;font-family:Droid Sans;-inkscape-font-specification:Droid Sans">DI</tspan></text>
    <text
       x="422.88272"
       y="205.69565"
       transform="scale(0.9926381,1.0074165)"
       id="text3321-6"
       xml:space="preserve"
       style="font-size:280.49526978px;font-style:normal;font-weight:normal;line-height:125%;letter-spacing:0px;word-spacing:0px;fill:#2e3436;fill-opacity:1;stroke:none;font-family:Sans"><tspan
         x="422.88272"
         y="205.69565"
         id="tspan3323-7"
         style="font-size:240px;font-style:normal;font-variant:normal;font-weight:normal;font-stretch:normal;fill:#2e3436;font-family:DejaVu Sans;-inkscape-font-specification:DejaVu Sans">YUN</tspan></text>
  </g>
  <text
     x="-147.85944"
     y="295.90845"
     id="text3337"
     xml:space="preserve"
     style="font-size:40px;font-style:normal;font-weight:normal;line-height:125%;letter-spacing:0px;word-spacing:0px;fill:#000000;fill-opacity:1;stroke:none;font-family:Sans"><tspan
       x="-147.85944"
       y="295.90845"
       id="tspan3339" /></text>
  <flowRoot
     transform="translate(-34.160095,-47.84538)"
     id="flowRoot5012"
     xml:space="preserve"
     style="font-size:40px;font-style:normal;font-weight:normal;line-height:125%;letter-spacing:0px;word-spacing:0px;fill:#000000;fill-opacity:1;stroke:none;font-family:Sans"><flowRegion
       id="flowRegion5014"><rect
         width="21.213203"
         height="130.10765"
         x="270.11478"
         y="385.81635"
         id="rect5016" /></flowRegion><flowPara
       id="flowPara5018"></flowPara></flowRoot>  <flowRoot
     transform="translate(-34.160095,-47.84538)"
     id="flowRoot5020"
     xml:space="preserve"
     style="font-size:40px;font-style:normal;font-weight:normal;line-height:125%;letter-spacing:0px;word-spacing:0px;fill:#000000;fill-opacity:1;stroke:none;font-family:Sans"><flowRegion
       id="flowRegion5022"><rect
         width="113.13708"
         height="159.80614"
         x="335.16861"
         y="313.69144"
         id="rect5024" /></flowRegion><flowPara
       id="flowPara5026"></flowPara></flowRoot>  <flowRoot
     transform="translate(-34.160095,-47.84538)"
     id="flowRoot5028"
     xml:space="preserve"
     style="font-size:40px;font-style:normal;font-weight:normal;line-height:125%;letter-spacing:0px;word-spacing:0px;fill:#000000;fill-opacity:1;stroke:none;font-family:Sans"><flowRegion
       id="flowRegion5030"><rect
         width="151.32085"
         height="149.90663"
         x="414.36456"
         y="303.79196"
         id="rect5032" /></flowRegion><flowPara
       id="flowPara5034"></flowPara></flowRoot>  <g
     transform="matrix(0.12808891,0,0,0.12808891,754.46661,229.65631)"
     id="g5118">
    <path
       d="m 585.88847,420.00668 a 227.28432,216.17264 0 1 1 -454.56863,0 227.28432,216.17264 0 1 1 454.56863,0 z"
       transform="matrix(1.2881021,0,0,1.3543129,-112.64574,-195.68462)"
       id="path4205"
       style="fill:#f57900;fill-opacity:1" />
    <g
       transform="matrix(1.1878482,0,0,1.1878482,-759.06535,-174.53186)"
       clip-path="url(#clipPath5114)"
       id="g5007">
      <circle
         cx="27.733999"
         cy="18.386999"
         r="2.691"
         transform="matrix(14.447631,0,0,14.447631,565.09009,150.75048)"
         id="circle4982"
         style="fill:#204a87" />
      <circle
         cx="29.146"
         cy="25.872999"
         r="1.73"
         transform="matrix(14.447631,0,0,14.447631,565.09009,150.75048)"
         id="circle4984"
         style="fill:#204a87" />
      <path
         d="m 861.58437,712.70554 h 224.19833 c 0,0 -65.0577,-52.28598 -63.6852,-109.61418 0.8091,-31.94371 63.6852,-72.59935 63.3673,-161.35114 -0.1878,-44.62874 -43.4729,-118.83177 -116.9824,-128.07825 -73.524,-9.26093 -128.54058,6.92041 -152.58144,52.24263 -24.06975,45.30777 -25.89015,85.0821 -24.04085,92.46484 1.86374,7.41163 9.7088,21.28136 9.7088,21.28136 0,0 -36.98593,56.86588 -34.68876,66.11236 2.34052,9.26093 27.71056,14.24536 27.71056,14.24536 0,0 2.29717,6.4292 -2.34052,18.91195 -4.62324,12.4972 8.61079,26.98818 12.58389,32.04485 3.91531,5.04222 -5.56234,20.79014 -2.34052,29.58875 3.23627,8.76971 18.50742,19.40316 36.06129,17.10599 17.58277,-2.32607 40.13552,-6.47254 47.96613,-7.87396 17.6839,41.62363 -24.93661,62.91944 -24.93661,62.91944 z m 165.95993,-169.44182 -7.6139,11.65924 -7.3972,-4.85441 c -3.3808,3.49633 -7.5128,6.32807 -12.136,8.2785 l 1.8204,8.68302 -13.60967,2.84619 -1.8204,-8.68303 c -5.0711,0.0867 -9.9544,-0.86686 -14.4476,-2.71616 l -4.85442,7.41164 -11.65924,-7.6139 4.83996,-7.41164 c -3.48188,-3.38074 -6.32807,-7.49832 -8.26405,-12.13601 l -8.69747,1.8204 -2.86063,-13.62411 8.71192,-1.80596 c -0.0722,-5.04222 0.86686,-9.93997 2.70171,-14.43318 l -7.41164,-4.8544 7.6139,-11.65924 7.41164,4.83996 c 3.38074,-3.49633 7.49832,-6.32807 12.15042,-8.2785 l -1.82037,-8.68302 13.60967,-2.86063 1.8204,8.69747 c 5.0422,-0.0867 9.94,0.86686 14.43317,2.70171 l 4.8544,-7.41164 11.6592,7.59946 -4.8399,7.42608 c 3.4819,3.38074 6.328,7.48387 8.264,12.13601 l 8.6686,-1.80596 2.8606,13.62412 -8.683,1.80595 c 0.087,5.04223 -0.8669,9.93997 -2.7017,14.44763 l 7.3972,4.85441 z m -127.32696,-153.11599 13.45074,3.10624 c 3.0629,-6.92042 7.54167,-13.26293 13.29182,-18.5941 l -7.3105,-11.71703 18.34849,-11.47142 7.32495,11.71703 c 7.3105,-2.81729 14.96775,-4.07424 22.53831,-3.79973 l 3.09179,-13.42185 21.10799,4.8544 -3.0918,13.42185 c 6.906,3.07735 13.21957,7.55611 18.56517,13.29182 l 11.7026,-7.3105 11.4859,18.36294 -11.7171,7.29606 c 2.8173,7.3105 4.0598,14.98219 3.7998,22.5383 l 13.4218,3.10624 -4.8688,21.09354 -13.4363,-3.10624 c -3.0485,6.90597 -7.5273,13.26293 -13.2774,18.5941 l 7.3105,11.70258 -18.36297,11.47142 -7.296,-11.70258 c -7.3394,2.83174 -14.99665,4.08868 -22.55276,3.79973 l -3.10624,13.42185 -21.09354,-4.86885 3.09179,-13.42185 c -6.90596,-3.0629 -13.24847,-7.54167 -18.5652,-13.29182 l -11.73148,7.32494 -11.47142,-18.36293 11.73148,-7.31051 c -2.83174,-7.32494 -4.07423,-14.96774 -3.81418,-22.52385 l -13.43629,-3.10624 4.86885,-21.09354 z"
         id="path4986"
         style="fill:#204a87" />
    </g>
    <path
       d="m 641.66952,375.85111 c 0,160.27426 -129.378,289.65228 -289.65225,289.65228 -59.86146,0 -114.89532,-17.37914 -160.27423,-48.27539 L 523.87761,142.19827 c 71.44755,53.10292 117.79191,138.06759 117.79191,233.65284 z m 0,0"
       id="path3968-6"
       style="fill:#000000;fill-opacity:0.07999998;stroke:none" />
  </g>
  <g
     id="g7795">
    <path
       d="m 585.88847,420.00668 a 227.28432,216.17264 0 1 1 -454.56863,0 227.28432,216.17264 0 1 1 454.56863,0 z"
       transform="matrix(0.16499159,0,0,0.17347246,547.34213,204.64041)"
       id="path4205-7"
       style="fill:#204a87;fill-opacity:1" />
    <text
       x="566.98083"
       y="303.10834"
       transform="scale(1.0698055,0.93474936)"
       id="text5511"
       xml:space="preserve"
       style="font-size:6.16215467px;font-style:normal;font-weight:normal;line-height:87.99999952%;letter-spacing:0px;word-spacing:0px;fill:#eeeeec;fill-opacity:1;stroke:none;font-family:Sans"><tspan
         x="566.98083"
         y="303.10834"
         id="tspan5513"
         style="font-size:18.44480324px;font-style:normal;font-variant:normal;font-weight:bold;font-stretch:normal;text-align:center;line-height:79.00000215%;text-anchor:middle;fill:#eeeeec;font-family:Droid Sans;-inkscape-font-specification:Droid Sans Bold">A<tspan
   id="tspan7791"
   style="font-size:16px">BOUT</tspan></tspan><tspan
         x="566.98083"
         y="327.63205"
         id="tspan5515"
         style="font-size:30.74133873px;font-style:normal;font-variant:normal;font-weight:bold;font-stretch:normal;text-align:center;line-height:87.99999952%;text-anchor:middle;fill:#eeeeec;font-family:Droid Sans;-inkscape-font-specification:Droid Sans Bold">M<tspan
   id="tspan7793"
   style="font-size:28px">E</tspan></tspan></text>
    <g
       transform="translate(184.56399,-116.69741)"
       id="g7724"
       style="fill:#729fcf">
      <g
         transform="matrix(0.24731809,0,0,-0.24731809,360.28904,459.52278)"
         id="g4430"
         style="fill:#729fcf">
        <g
           id="g4432"
           style="fill:#729fcf">
          <path
             d="m 309.07,384.691 c -20.014,-1.161 -44.646,-7.555 -60.268,-8.499 l 0,0 c -26.648,0.82 -38.088,7.338 -58.105,8.499 l 0,0 c -21.358,1.238 -54.172,-1.239 -66.554,-4.953 l 0,0 c 0,0 -0.62,-19.501 0.619,-39.004 l 0,0 c 0,0 6.191,-2.478 8.668,-9.597 l 0,0 c 2.475,-7.119 3.352,-30.146 38.653,-30.722 l 0,0 c 37.144,-0.606 56.884,1.575 62.871,40.811 l 0,0 c 0,0 2.364,15.284 14.092,14.024 l 0,0 c 10.23,0 12.538,-14.182 12.538,-14.182 l 0,0 c 6.152,-41.572 27.952,-41.991 65.077,-40.653 l 0,0 c 33.49,1.205 37.94,23.135 40.416,30.253 l 0,0 c 2.478,7.12 7.931,10.066 7.931,10.066 l 0,0 c 1.237,19.503 0.618,39.004 0.618,39.004 l 0,0 c -10.188,3.056 -34.213,5.274 -54.305,5.275 l 0,0 c -4.326,0 -8.466,-0.103 -12.251,-0.322"
             id="path4440"
             style="fill:#729fcf;stroke:none" />
        </g>
      </g>
      <g
         transform="matrix(0.24731809,0,0,-0.24731809,391.00177,365.85672)"
         id="g4450"
         style="fill:#729fcf">
        <path
           d="m 0,0 c 12.382,3.715 45.47,4.366 66.829,3.127 20.016,-1.16 31.457,-7.678 58.105,-8.498 15.623,0.943 40.253,7.338 60.268,8.498 21.225,1.231 53.403,0.549 65.965,-3.127 -0.036,1.765 0.276,1.011 0.276,1.011 C 239.061,4.726 206.248,7.202 184.887,5.964 164.873,4.803 140.242,-1.591 124.62,-2.535 97.971,-1.715 86.531,4.803 66.515,5.964 45.155,7.202 12.342,4.726 -0.04,1.011 L 0,0 z"
           id="path4452"
           style="fill:#729fcf;fill-opacity:1;fill-rule:nonzero;stroke:none" />
      </g>
      <g
         transform="matrix(0.24731809,0,0,-0.24731809,394.6392,375.32584)"
         id="g4454"
         style="fill:#729fcf">
        <path
           d="M 0,0 C -1.454,9.145 -5.842,32.247 17.291,33.883 40.424,35.519 67.764,31.779 75.242,29.676 82.719,27.573 93.46,25.643 88.094,1.87 83.616,-17.966 76.367,-30.887 54.211,-31.779 31.795,-32.68 5.607,-35.286 0,0"
           id="path4456"
           style="fill:#729fcf;fill-opacity:1;fill-rule:nonzero;stroke:none" />
      </g>
      <g
         transform="matrix(0.24731809,0,0,-0.24731809,360.28904,459.52278)"
         id="g4458"
         style="fill:#729fcf">
        <g
           id="g4460"
           style="fill:#729fcf" />
        <g
           id="g4466"
           style="fill:#729fcf">
          <g
             clip-path="url(#clipPath4462)"
             id="g4468"
             style="opacity:0.08000183;fill:#729fcf">
            <g
               transform="translate(168.3208,369.9985)"
               id="g4470"
               style="fill:#729fcf">
              <path
                 d="m 0,0 c -4.165,0 -8.137,-0.131 -11.807,-0.392 -5.169,-0.365 -8.779,-1.927 -11.037,-4.776 -4.759,-6.003 -2.995,-16.959 -2.048,-22.845 l 2.025,0 c 0,0 -2.123,16.644 2.522,20.827 5.644,5.083 20.483,5.515 20.483,5.515 L 0,0 z"
                 id="path4472"
                 style="fill:#729fcf;fill-opacity:1;fill-rule:nonzero;stroke:none" />
            </g>
          </g>
        </g>
      </g>
      <g
         transform="matrix(0.24731809,0,0,-0.24731809,360.28904,459.52278)"
         clip-path="url(#clipPath4478)"
         id="g4476"
         style="fill:#729fcf">
        <g
           id="g4482"
           style="fill:#729fcf">
          <g
             id="g4484"
             style="fill:#729fcf">
            <path
               d="m 160.848,374.99 c -1.371,-0.064 -2.742,-0.142 -4.11,-0.24 l 0,0 c -1.371,-0.087 -2.759,-0.243 -4.119,-0.508 l 0,0 c -2.721,-0.521 -5.396,-1.511 -7.681,-3.122 l 0,0 c -2.295,-1.595 -4.109,-3.835 -5.274,-6.345 l 0,0 c -1.179,-2.513 -1.77,-5.249 -2.019,-7.982 l 0,0 c -0.498,-5.492 0.277,-10.974 1.199,-16.361 l 0,0 c 0.835,-5.406 2.282,-10.772 4.819,-15.66 l 0,0 c 2.5,-4.889 6.347,-9.16 11.168,-11.91 l 0,0 c 4.806,-2.803 10.323,-4.096 15.785,-4.686 l 0,0 c 5.489,-0.592 11.004,-0.45 16.478,-0.255 l 0,0 c 2.747,0.126 5.456,0.188 8.228,0.377 l 0,0 c 2.753,0.218 5.504,0.65 8.174,1.418 l 0,0 c 2.668,0.766 5.261,1.856 7.621,3.344 l 0,0 c 2.364,1.478 4.483,3.34 6.271,5.472 l 0,0 c 3.599,4.271 5.855,9.444 7.519,14.667 l 0,0 c 0.835,2.623 1.52,5.285 2.132,7.962 l 0,0 c 0.613,2.673 1.122,5.383 1.406,8.122 l 0,0 c 0.277,2.735 0.351,5.516 -0.078,8.254 l 0,0 c -0.422,2.719 -1.44,5.441 -3.343,7.5 l 0,0 c -1.885,2.082 -4.483,3.313 -7.087,4.135 l 0,0 c -2.626,0.795 -5.267,1.555 -7.969,2.056 l 0,0 c -10.784,1.994 -21.707,3.165 -32.663,3.704 l 0,0 c -3.162,0.126 -6.327,0.211 -9.494,0.211 l 0,0 c -2.321,0 -4.643,-0.046 -6.963,-0.153 m 9.858,-65.917 c -5.4,0.502 -10.799,1.721 -15.569,4.33 l 0,0 c -4.779,2.577 -8.658,6.691 -11.241,11.492 l 0,0 c -2.613,4.807 -4.068,10.166 -4.96,15.552 l 0,0 c -0.868,5.391 -1.641,10.875 -1.045,16.321 l 0,0 c 0.303,2.706 0.946,5.395 2.148,7.825 l 0,0 c 1.191,2.431 2.993,4.549 5.235,6.039 l 0,0 c 2.234,1.507 4.835,2.388 7.482,2.883 l 0,0 c 2.652,0.489 5.398,0.524 8.125,0.656 l 0,0 c 5.461,0.185 10.93,0.19 16.394,-0.021 l 0,0 c 5.464,-0.187 10.926,-0.533 16.373,-1.051 l 0,0 c 5.445,-0.518 10.885,-1.18 16.258,-2.193 l 0,0 c 2.687,-0.489 5.335,-1.194 7.938,-2.018 l 0,0 c 2.578,-0.837 5.1,-2.07 6.904,-4.1 l 0,0 c 1.824,-2.007 2.788,-4.651 3.179,-7.32 l 0,0 c 0.398,-2.684 0.302,-5.427 0.003,-8.129 l 0,0 c -0.315,-2.707 -0.851,-5.382 -1.497,-8.037 l 0,0 c -0.642,-2.655 -1.357,-5.292 -2.217,-7.878 l 0,0 C 222.5,328.27 220.21,323.23 216.709,319.107 l 0,0 c -1.745,-2.056 -3.8,-3.839 -6.089,-5.252 l 0,0 c -2.285,-1.422 -4.795,-2.461 -7.393,-3.192 l 0,0 c -2.601,-0.722 -5.284,-1.153 -7.986,-1.376 l 0,0 c -2.693,-0.189 -5.462,-0.26 -8.185,-0.391 l 0,0 c -2.581,-0.106 -5.162,-0.183 -7.74,-0.183 l 0,0 c -2.878,0 -5.751,0.097 -8.61,0.36"
               id="path4492"
               style="fill:#729fcf;stroke:none" />
          </g>
        </g>
      </g>
      <g
         transform="matrix(0.24731809,0,0,-0.24731809,360.28904,459.52278)"
         id="g4494"
         style="fill:#729fcf">
        <g
           clip-path="url(#clipPath4498)"
           id="g4496"
           style="fill:#729fcf">
          <g
             transform="translate(279.2158,369.9551)"
             id="g4502"
             style="fill:#729fcf">
            <path
               d="M 0,0 C 18.036,4.808 52.46,6.088 63.701,4.45 74.944,2.811 84.501,4.773 81.97,-28.338 79.738,-57.502 57.145,-60.659 43.093,-61.36 29.04,-62.063 -5.275,-62.958 -9.602,-31.618 -13.233,-5.318 -3.514,-0.937 0,0"
               id="path4504"
               style="fill:#729fcf;fill-opacity:1;fill-rule:nonzero;stroke:none" />
          </g>
        </g>
      </g>
      <g
         transform="matrix(0.24731809,0,0,-0.24731809,360.28904,459.52278)"
         id="g4506"
         style="fill:#729fcf">
        <g
           clip-path="url(#clipPath4510)"
           id="g4508"
           style="fill:#729fcf">
          <g
             id="g4514"
             style="fill:#729fcf">
            <g
               id="g4516"
               style="fill:#729fcf">
              <path
                 d="m 329.333,375.491 c -5.62,-0.033 -11.235,-0.246 -16.836,-0.664 l 0,0 c -5.602,-0.411 -11.191,-0.962 -16.752,-1.724 l 0,0 c -5.56,-0.768 -11.114,-1.651 -16.542,-3.102 l 0,0 c -2.746,-0.695 -5.113,-2.549 -6.68,-4.885 l 0,0 c -1.602,-2.336 -2.508,-5.065 -3.097,-7.809 l 0,0 c -1.128,-5.536 -0.953,-11.237 -0.397,-16.824 l 0,0 c 0.475,-5.593 1.943,-11.253 4.99,-16.094 l 0,0 c 2.997,-4.873 7.566,-8.657 12.65,-11.159 l 0,0 c 5.103,-2.521 10.673,-3.923 16.266,-4.643 l 0,0 c 5.604,-0.718 11.262,-0.786 16.879,-0.549 l 0,0 c 5.607,0.215 11.275,0.675 16.745,2.133 l 0,0 c 5.45,1.431 10.74,3.923 14.867,7.837 l 0,0 c 4.164,3.872 6.94,9.047 8.398,14.476 l 0,0 c 1.517,5.454 1.692,11.124 1.912,16.72 l 0,0 c 0.069,2.808 0.031,5.623 -0.209,8.429 l 0,0 c -0.244,2.8 -0.675,5.618 -1.685,8.285 l 0,0 c -0.51,1.326 -1.18,2.612 -2.093,3.732 l 0,0 c -0.905,1.122 -2.058,2.052 -3.343,2.711 l 0,0 c -2.594,1.322 -5.481,1.665 -8.248,2.025 l 0,0 c -1.402,0.161 -2.759,0.357 -4.172,0.546 l 0,0 c -1.407,0.168 -2.812,0.275 -4.219,0.358 l 0,0 c -2.458,0.141 -4.916,0.205 -7.373,0.205 l 0,0 c -0.353,0 -0.707,-0.002 -1.061,-0.004 m -26.27,-65.925 c -5.51,0.747 -10.986,2.079 -15.961,4.537 l 0,0 c -4.976,2.422 -9.349,6.1 -12.323,10.767 l 0,0 c -3.022,4.659 -4.513,10.145 -5.132,15.685 l 0,0 c -0.682,5.535 -0.97,11.191 0.036,16.701 l 0,0 c 0.513,2.738 1.419,5.444 2.974,7.768 l 0,0 c 1.532,2.323 3.853,4.173 6.572,4.885 l 0,0 c 10.887,2.739 22.129,3.694 33.304,4.326 l 0,0 c 5.598,0.27 11.201,0.463 16.8,0.437 l 0,0 c 2.799,-0.022 5.598,-0.062 8.388,-0.206 l 0,0 c 1.395,-0.075 2.788,-0.174 4.169,-0.332 l 0,0 c 1.368,-0.177 2.788,-0.374 4.174,-0.527 l 0,0 c 2.767,-0.332 5.582,-0.622 8.043,-1.837 l 0,0 c 1.22,-0.602 2.31,-1.452 3.185,-2.499 l 0,0 c 0.878,-1.045 1.544,-2.266 2.062,-3.545 l 0,0 c 1.024,-2.575 1.5,-5.355 1.785,-8.128 l 0,0 c 0.271,-2.783 0.318,-5.586 0.27,-8.386 l 0,0 c -0.149,-5.589 -0.388,-11.248 -1.942,-16.63 l 0,0 c -1.494,-5.366 -4.277,-10.433 -8.394,-14.196 l 0,0 c -4.098,-3.789 -9.311,-6.167 -14.696,-7.512 l 0,0 c -5.408,-1.369 -11.006,-1.75 -16.597,-1.947 l 0,0 c -1.612,-0.059 -3.225,-0.093 -4.837,-0.093 l 0,0 c -3.977,0 -7.949,0.204 -11.88,0.732"
                 id="path4524"
                 style="fill:#729fcf;stroke:none" />
            </g>
          </g>
        </g>
      </g>
      <g
         transform="matrix(0.24731809,0,0,-0.24731809,360.28904,459.52278)"
         id="g4534"
         style="fill:#729fcf">
        <g
           id="g4536"
           style="fill:#729fcf" />
        <g
           id="g4542"
           style="fill:#729fcf">
          <g
             clip-path="url(#clipPath4538)"
             id="g4544"
             style="opacity:0.08000183;fill:#729fcf">
            <g
               transform="translate(332.7959,369.9985)"
               id="g4546"
               style="fill:#729fcf">
              <path
                 d="m 0,0 c 4.164,0 8.136,-0.131 11.806,-0.392 5.17,-0.365 8.779,-1.927 11.039,-4.776 4.758,-6.003 2.994,-16.959 2.047,-22.845 l -1.08,0 c 0,0 1.169,17.117 -3.476,21.3 -5.645,5.084 -20.475,5.042 -20.475,5.042 L 0,0 z"
                 id="path4548"
                 style="fill:#729fcf;fill-opacity:1;fill-rule:nonzero;stroke:none" />
            </g>
          </g>
        </g>
      </g>
      <g
         transform="matrix(0.24731809,0,0,-0.24731809,391.49653,371.46837)"
         id="g4550"
         style="fill:#729fcf">
        <path
           d="m 0,0 -0.521,4.35 c -0.114,1.46 -0.178,2.935 -0.129,4.423 0.107,2.962 -1.286,8.923 0.381,11.554 1.749,2.571 6.226,2.757 8.825,2.993 2.6,0.237 3.423,0.334 4.887,0.534 1.474,0.142 2.941,0.232 4.407,0.144 l 0.005,-0.094 C 14.963,23.708 12.06,23.239 9.361,22.169 6.667,21.125 4.214,19.349 2.639,16.914 1.029,14.497 0.318,11.591 0.083,8.714 -0.175,5.818 0.067,2.91 0.094,0 L 0,0 z"
           id="path4552"
           style="fill:#729fcf;fill-opacity:1;fill-rule:nonzero;stroke:none" />
      </g>
      <g
         transform="matrix(0.24731809,0,0,-0.24731809,451.97136,371.48009)"
         id="g4554"
         style="fill:#729fcf">
        <path
           d="m 0,0 0.52,4.35 c 0.114,1.46 0.177,2.935 0.129,4.424 -0.107,2.962 1.286,8.922 -0.381,11.553 -1.749,2.572 -6.225,2.757 -8.826,2.994 -2.599,0.236 -3.421,0.333 -4.886,0.533 -1.475,0.142 -2.942,0.233 -4.407,0.144 l -0.005,-0.095 c 2.892,-0.195 5.793,-0.664 8.494,-1.734 2.694,-1.044 5.145,-2.82 6.723,-5.255 1.609,-2.417 2.319,-5.324 2.555,-8.2 C 0.175,5.818 -0.068,2.91 -0.095,0.001 L 0,0 z"
           id="path4556"
           style="fill:#729fcf;fill-opacity:1;fill-rule:nonzero;stroke:none" />
      </g>
      <g
         transform="matrix(0.24731809,0,0,-0.24731809,443.06331,384.09077)"
         id="g4558"
         style="fill:#729fcf">
        <path
           d="m 0,0 c 4.036,1.102 7.71,2.823 11.333,4.708 1.821,0.918 3.694,1.846 5.327,3.123 1.641,1.265 3.045,2.815 4.253,4.485 1.193,1.684 2.259,3.429 3.254,5.202 0.971,1.788 1.783,3.651 2.522,5.542 1.528,3.768 2.56,7.732 3.48,11.833 l 0.188,-0.014 C 30.651,30.668 30.021,26.371 28.574,22.342 27.843,20.329 26.835,18.425 25.7,16.615 24.578,14.795 23.211,13.133 21.7,11.645 20.201,10.141 18.623,8.755 17.051,7.359 15.475,5.976 13.909,4.516 12.121,3.346 10.333,2.182 8.359,1.316 6.324,0.683 4.29,0.07 2.149,-0.348 0.019,-0.188 L 0,0 z"
           id="path4560"
           style="fill:#729fcf;fill-opacity:1;fill-rule:nonzero;stroke:none" />
      </g>
      <g
         transform="matrix(0.24731809,0,0,-0.24731809,401.25231,384.20911)"
         id="g4562"
         style="fill:#729fcf">
        <path
           d="m 0,0 c -4.037,1.071 -7.71,2.746 -11.333,4.582 -1.82,0.893 -3.695,1.794 -5.327,3.038 -1.64,1.231 -3.046,2.739 -4.253,4.363 -1.194,1.639 -2.258,3.338 -3.254,5.062 -0.971,1.742 -1.783,3.554 -2.522,5.393 -1.528,3.668 -2.56,7.525 -3.479,11.516 l -0.188,-0.014 c -0.296,-4.098 0.336,-8.28 1.781,-12.201 0.733,-1.958 1.741,-3.811 2.875,-5.572 1.123,-1.771 2.489,-3.387 3.999,-4.836 1.5,-1.464 3.078,-2.813 4.649,-4.17 1.577,-1.348 3.142,-2.766 4.93,-3.906 1.788,-1.131 3.763,-1.975 5.798,-2.591 2.035,-0.597 4.174,-1.002 6.306,-0.848 L 0,0 z"
           id="path4564"
           style="fill:#729fcf;fill-opacity:1;fill-rule:nonzero;stroke:none" />
      </g>
    </g>
    <path
       d="m 643.96154,277.8478 c 0,20.52935 -16.57189,37.10124 -37.10124,37.10124 -7.66759,0 -14.71681,-2.22608 -20.52935,-6.18354 l 42.54276,-60.84604 c 9.15164,6.80189 15.08783,17.68492 15.08783,29.92834 z m 0,0"
       id="path3968-4"
       style="fill:#000000;fill-opacity:0.07999998;stroke:none" />
  </g>
  <g
     transform="matrix(0.12808891,0,0,0.12808891,90.923699,382.33313)"
     id="g5994"
     style="fill:#2e3436">
    <path
       d="m 585.88847,420.00668 a 227.28432,216.17264 0 1 1 -454.56863,0 227.28432,216.17264 0 1 1 454.56863,0 z"
       transform="matrix(1.2881021,0,0,1.3543129,-397.269,-1387.2608)"
       id="path4205-3"
       style="fill:#2e3436;fill-opacity:1" />
  </g>
  <g
     transform="matrix(3.3597977,0,0,3.3597977,79.541669,251.89765)"
     id="g5937"
     style="fill:#eeeeec">
    <path
       d="M 5.082,4.54 C 3.59,3.922 2.279,3.866 1.076,4.366 L 1.002,4.184 C 2.256,3.664 3.617,3.722 5.158,4.359 L 5.082,4.54 z M 5.158,5.552 C 3.619,4.916 2.256,4.858 1.002,5.377 L 1.076,5.559 C 2.283,5.061 3.592,5.118 5.082,5.734 L 5.158,5.552 z m 0,-2.387 C 3.619,2.529 2.256,2.472 1.002,2.989 L 1.076,3.172 C 2.283,2.673 3.592,2.73 5.082,3.347 L 5.158,3.165 z M 11.797,5.52 12.395,4.921 V 9.447 H 7.277 C 7.1,9.599 6.684,9.706 6.197,9.706 5.71,9.706 5.295,9.599 5.119,9.447 H 0 V 2.468 C 0,1.85 0,1.445 0,1.423 3.369,-0.04 5.83,1.395 6.258,1.809 6.557,1.533 8.733,0.251 11.567,1.119 l -0.57,0.57 C 10.602,1.575 10.165,1.504 9.698,1.504 8.007,1.504 6.634,2.065 6.634,3.103 v 5.845 c 0,-0.274 2.395,-1.881 5.164,-0.127 V 5.52 z M 5.801,3.103 C 5.801,2.065 4.428,1.504 2.737,1.504 1.925,1.504 1.186,1.698 0.639,2.015 V 8.82 C 3.405,7.066 5.801,8.673 5.801,8.947 V 3.103 z M 7.021,4.358 7.096,4.54 C 7.684,4.296 8.289,4.164 8.885,4.094 L 8.971,3.887 C 8.322,3.952 7.662,4.094 7.021,4.358 z m 0,1.194 0.074,0.182 C 7.515,5.561 7.943,5.442 8.372,5.357 L 8.456,5.148 C 7.977,5.234 7.492,5.357 7.021,5.552 z m 0,-2.387 0.074,0.182 C 7.997,2.974 8.939,2.826 9.822,2.864 L 10.008,2.678 C 9.047,2.609 8.01,2.756 7.021,3.165 z M 14.789,1.904 11.154,5.538 10.221,5.92 C 10.006,6.005 9.705,6.129 9.448,6.232 9.378,6.261 9.294,6.294 9.237,6.318 L 8.793,6.5 C 8.523,6.608 8.391,6.478 8.502,6.206 L 8.68,5.764 C 8.705,5.706 8.739,5.624 8.768,5.553 8.873,5.296 8.994,4.992 9.08,4.78 L 9.463,3.845 13.096,0.211 c 0.223,-0.224 0.533,-0.279 0.688,-0.123 l 1.129,1.129 c 0.153,0.156 0.099,0.465 -0.124,0.687 z M 10.615,5.43 9.57,4.384 9.363,4.896 9.242,5.191 9.125,5.48 9.52,5.876 10.108,5.637 10.615,5.43 z"
       id="path5899"
       style="fill:#eeeeec" />
    <g
       id="g5901"
       style="fill:#eeeeec" />
    <g
       id="g5903"
       style="fill:#eeeeec" />
    <g
       id="g5905"
       style="fill:#eeeeec" />
    <g
       id="g5907"
       style="fill:#eeeeec" />
    <g
       id="g5909"
       style="fill:#eeeeec" />
    <g
       id="g5911"
       style="fill:#eeeeec" />
    <g
       id="g5913"
       style="fill:#eeeeec" />
    <g
       id="g5915"
       style="fill:#eeeeec" />
    <g
       id="g5917"
       style="fill:#eeeeec" />
    <g
       id="g5919"
       style="fill:#eeeeec" />
    <g
       id="g5921"
       style="fill:#eeeeec" />
    <g
       id="g5923"
       style="fill:#eeeeec" />
    <g
       id="g5925"
       style="fill:#eeeeec" />
    <g
       id="g5927"
       style="fill:#eeeeec" />
    <g
       id="g5929"
       style="fill:#eeeeec" />
  </g>
  <text
     x="71.171814"
     y="327.15073"
     transform="scale(1.088139,0.91900024)"
     id="text6002"
     xml:space="preserve"
     style="font-size:19.7192688px;font-style:normal;font-weight:normal;line-height:125%;letter-spacing:-0.94px;word-spacing:0px;fill:#eeeeec;fill-opacity:1;stroke:none;font-family:Sans"><tspan
       x="71.171814"
       y="327.15073"
       id="tspan6004"
       style="font-style:normal;font-variant:normal;font-weight:normal;font-stretch:normal;letter-spacing:-0.94px;fill:#eeeeec;font-family:Droid Sans;-inkscape-font-specification:Droid Sans">B<tspan
   id="tspan7766"
   style="font-size:16px">LOG</tspan></tspan></text>
  <path
     d="m 136.65737,277.84779 c 0,20.52936 -16.57189,37.10125 -37.101251,37.10125 -7.66758,0 -14.71681,-2.22608 -20.52935,-6.18354 l 42.542761,-60.84604 c 9.15164,6.80189 15.08784,17.68492 15.08784,29.92833 z m 0,0"
     id="path3968-42"
     style="fill:#000000;fill-opacity:0.07999998;stroke:none" />
</svg>
