<?xml version="1.0" encoding="UTF-8" standalone="no"?>
<svg
   xmlns:dc="http://purl.org/dc/elements/1.1/"
   xmlns:cc="http://creativecommons.org/ns#"
   xmlns:rdf="http://www.w3.org/1999/02/22-rdf-syntax-ns#"
   xmlns:svg="http://www.w3.org/2000/svg"
   xmlns="http://www.w3.org/2000/svg"
   xmlns:xlink="http://www.w3.org/1999/xlink"
   xmlns:sodipodi="http://sodipodi.sourceforge.net/DTD/sodipodi-0.dtd"
   xmlns:inkscape="http://www.inkscape.org/namespaces/inkscape"
   version="1.2"
   id="svg2"
   viewBox="0 0 975.78901 411.27218"
   preserveAspectRatio="xMinYMin meet"
   class="svg-content"
   inkscape:version="0.48.4 r9939"
   width="100%"
   height="100%"
   sodipodi:docname="logo.svg">
  <sodipodi:namedview
     pagecolor="#ffffff"
     bordercolor="#666666"
     borderopacity="1"
     objecttolerance="10"
     gridtolerance="10"
     guidetolerance="10"
     inkscape:pageopacity="0"
     inkscape:pageshadow="2"
     inkscape:window-width="1329"
     inkscape:window-height="750"
     id="namedview174"
     showgrid="false"
     inkscape:zoom="0.77926054"
     inkscape:cx="685.17182"
     inkscape:cy="204.3381"
     inkscape:window-x="37"
     inkscape:window-y="18"
     inkscape:window-maximized="1"
     inkscape:current-layer="svg2"
     fit-margin-top="0"
     fit-margin-left="0"
     fit-margin-right="0"
     fit-margin-bottom="0" />
  <defs
     id="defs4">
    <filter
       x="0"
       y="0"
       width="1"
       height="1"
       color-interpolation-filters="sRGB"
       id="filter4677">
      <feFlood
         id="feFlood4679"
         result="result1"
         flood-opacity="0"
         flood-color="rgb(128,128,128)" />
      <feBlend
         in2="SourceGraphic"
         mode="normal"
         result="result2"
         id="feBlend4681" />
      <feComposite
         in2="SourceGraphic"
         operator="arithmetic"
         k1="0"
         k2="1"
         k3="0"
         k4="0"
         result="result3"
         id="feComposite4683" />
      <feComposite
         in2="SourceGraphic"
         operator="in"
         result="fbSourceGraphic"
         id="feComposite4685" />
      <feColorMatrix
         result="fbSourceGraphicAlpha"
         in="fbSourceGraphic"
         values="0 0 0 -1 0 0 0 0 -1 0 0 0 0 -1 0 0 0 0 1 0"
         id="feColorMatrix7261" />
      <feColorMatrix
         id="feColorMatrix7263"
         type="saturate"
         values="0"
         in="fbSourceGraphic"
         result="fbSourceGraphic" />
      <feColorMatrix
         result="fbSourceGraphicAlpha"
         in="fbSourceGraphic"
         values="0 0 0 -1 0 0 0 0 -1 0 0 0 0 -1 0 0 0 0 1 0"
         id="feColorMatrix7265" />
      <feColorMatrix
         id="feColorMatrix7267"
         type="saturate"
         values="0"
         in="fbSourceGraphic"
         result="fbSourceGraphic" />
      <feColorMatrix
         result="fbSourceGraphicAlpha"
         in="fbSourceGraphic"
         values="0 0 0 -1 0 0 0 0 -1 0 0 0 0 -1 0 0 0 0 1 0"
         id="feColorMatrix7269" />
      <feColorMatrix
         id="feColorMatrix7271"
         type="saturate"
         values="0"
         in="fbSourceGraphic"
         result="fbSourceGraphic" />
      <feColorMatrix
         result="fbSourceGraphicAlpha"
         in="fbSourceGraphic"
         values="0 0 0 -1 0 0 0 0 -1 0 0 0 0 -1 0 0 0 0 1 0"
         id="feColorMatrix7273" />
      <feColorMatrix
         id="feColorMatrix7275"
         type="saturate"
         values="0"
         in="fbSourceGraphic"
         result="fbSourceGraphic" />
      <feColorMatrix
         result="fbSourceGraphicAlpha"
         in="fbSourceGraphic"
         values="0 0 0 -1 0 0 0 0 -1 0 0 0 0 -1 0 0 0 0 1 0"
         id="feColorMatrix7277" />
      <feColorMatrix
         id="feColorMatrix7279"
         type="saturate"
         values="0"
         in="fbSourceGraphic"
         result="fbSourceGraphic" />
      <feColorMatrix
         result="fbSourceGraphicAlpha"
         in="fbSourceGraphic"
         values="0 0 0 -1 0 0 0 0 -1 0 0 0 0 -1 0 0 0 0 1 0"
         id="feColorMatrix7281" />
      <feColorMatrix
         id="feColorMatrix7283"
         type="saturate"
         values="0"
         in="fbSourceGraphic"
         result="fbSourceGraphic" />
      <feColorMatrix
         result="fbSourceGraphicAlpha"
         in="fbSourceGraphic"
         values="0 0 0 -1 0 0 0 0 -1 0 0 0 0 -1 0 0 0 0 1 0"
         id="feColorMatrix7285" />
      <feColorMatrix
         id="feColorMatrix7287"
         type="saturate"
         values="0"
         in="fbSourceGraphic"
         result="fbSourceGraphic" />
      <feColorMatrix
         result="fbSourceGraphicAlpha"
         in="fbSourceGraphic"
         values="0 0 0 -1 0 0 0 0 -1 0 0 0 0 -1 0 0 0 0 1 0"
         id="feColorMatrix7289" />
      <feColorMatrix
         id="feColorMatrix7291"
         type="saturate"
         values="0"
         in="fbSourceGraphic"
         result="fbSourceGraphic" />
      <feColorMatrix
         result="fbSourceGraphicAlpha"
         in="fbSourceGraphic"
         values="0 0 0 -1 0 0 0 0 -1 0 0 0 0 -1 0 0 0 0 1 0"
         id="feColorMatrix7293" />
      <feColorMatrix
         id="feColorMatrix7295"
         type="saturate"
         values="0"
         in="fbSourceGraphic"
         result="fbSourceGraphic" />
      <feColorMatrix
         result="fbSourceGraphicAlpha"
         in="fbSourceGraphic"
         values="0 0 0 -1 0 0 0 0 -1 0 0 0 0 -1 0 0 0 0 1 0"
         id="feColorMatrix7297" />
      <feColorMatrix
         id="feColorMatrix7299"
         type="saturate"
         values="0"
         in="fbSourceGraphic"
         result="fbSourceGraphic" />
      <feColorMatrix
         result="fbSourceGraphicAlpha"
         in="fbSourceGraphic"
         values="0 0 0 -1 0 0 0 0 -1 0 0 0 0 -1 0 0 0 0 1 0"
         id="feColorMatrix7301" />
      <feColorMatrix
         id="feColorMatrix7303"
         type="saturate"
         values="0"
         in="fbSourceGraphic"
         result="fbSourceGraphic" />
      <feColorMatrix
         result="fbSourceGraphicAlpha"
         in="fbSourceGraphic"
         values="0 0 0 -1 0 0 0 0 -1 0 0 0 0 -1 0 0 0 0 1 0"
         id="feColorMatrix7305" />
      <feColorMatrix
         id="feColorMatrix7307"
         type="saturate"
         values="0"
         in="fbSourceGraphic"
         result="fbSourceGraphic" />
      <feColorMatrix
         result="fbSourceGraphicAlpha"
         in="fbSourceGraphic"
         values="0 0 0 -1 0 0 0 0 -1 0 0 0 0 -1 0 0 0 0 1 0"
         id="feColorMatrix7309" />
      <feColorMatrix
         id="feColorMatrix7311"
         type="saturate"
         values="0"
         in="fbSourceGraphic"
         result="fbSourceGraphic" />
      <feColorMatrix
         result="fbSourceGraphicAlpha"
         in="fbSourceGraphic"
         values="0 0 0 -1 0 0 0 0 -1 0 0 0 0 -1 0 0 0 0 1 0"
         id="feColorMatrix7313" />
      <feColorMatrix
         id="feColorMatrix7315"
         type="saturate"
         values="0"
         in="fbSourceGraphic"
         result="fbSourceGraphic" />
      <feColorMatrix
         result="fbSourceGraphicAlpha"
         in="fbSourceGraphic"
         values="0 0 0 -1 0 0 0 0 -1 0 0 0 0 -1 0 0 0 0 1 0"
         id="feColorMatrix7317" />
      <feColorMatrix
         id="feColorMatrix7319"
         type="saturate"
         values="0"
         in="fbSourceGraphic"
         result="fbSourceGraphic" />
      <feColorMatrix
         result="fbSourceGraphicAlpha"
         in="fbSourceGraphic"
         values="0 0 0 -1 0 0 0 0 -1 0 0 0 0 -1 0 0 0 0 1 0"
         id="feColorMatrix7321" />
      <feColorMatrix
         id="feColorMatrix7323"
         type="saturate"
         values="0"
         in="fbSourceGraphic"
         result="fbSourceGraphic" />
      <feColorMatrix
         result="fbSourceGraphicAlpha"
         in="fbSourceGraphic"
         values="0 0 0 -1 0 0 0 0 -1 0 0 0 0 -1 0 0 0 0 1 0"
         id="feColorMatrix7325" />
      <feColorMatrix
         id="feColorMatrix7327"
         type="saturate"
         values="0"
         in="fbSourceGraphic"
         result="fbSourceGraphic" />
      <feColorMatrix
         result="fbSourceGraphicAlpha"
         in="fbSourceGraphic"
         values="0 0 0 -1 0 0 0 0 -1 0 0 0 0 -1 0 0 0 0 1 0"
         id="feColorMatrix7329" />
      <feColorMatrix
         id="feColorMatrix7331"
         type="saturate"
         values="0"
         in="fbSourceGraphic"
         result="fbSourceGraphic" />
      <feColorMatrix
         result="fbSourceGraphicAlpha"
         in="fbSourceGraphic"
         values="0 0 0 -1 0 0 0 0 -1 0 0 0 0 -1 0 0 0 0 1 0"
         id="feColorMatrix7333" />
      <feColorMatrix
         id="feColorMatrix7335"
         type="saturate"
         values="0"
         in="fbSourceGraphic"
         result="fbSourceGraphic" />
      <feColorMatrix
         result="fbSourceGraphicAlpha"
         in="fbSourceGraphic"
         values="0 0 0 -1 0 0 0 0 -1 0 0 0 0 -1 0 0 0 0 1 0"
         id="feColorMatrix7337" />
      <feColorMatrix
         id="feColorMatrix7339"
         type="saturate"
         values="0"
         in="fbSourceGraphic"
         result="fbSourceGraphic" />
      <feColorMatrix
         result="fbSourceGraphicAlpha"
         in="fbSourceGraphic"
         values="0 0 0 -1 0 0 0 0 -1 0 0 0 0 -1 0 0 0 0 1 0"
         id="feColorMatrix7341" />
      <feColorMatrix
         id="feColorMatrix7343"
         type="saturate"
         values="0"
         in="fbSourceGraphic"
         result="fbSourceGraphic" />
      <feColorMatrix
         result="fbSourceGraphicAlpha"
         in="fbSourceGraphic"
         values="0 0 0 -1 0 0 0 0 -1 0 0 0 0 -1 0 0 0 0 1 0"
         id="feColorMatrix7345" />
      <feColorMatrix
         id="feColorMatrix7347"
         type="saturate"
         values="0"
         in="fbSourceGraphic"
         result="fbSourceGraphic" />
      <feColorMatrix
         result="fbSourceGraphicAlpha"
         in="fbSourceGraphic"
         values="0 0 0 -1 0 0 0 0 -1 0 0 0 0 -1 0 0 0 0 1 0"
         id="feColorMatrix7349" />
      <feColorMatrix
         id="feColorMatrix7351"
         type="saturate"
         values="0"
         in="fbSourceGraphic"
         result="fbSourceGraphic" />
      <feColorMatrix
         result="fbSourceGraphicAlpha"
         in="fbSourceGraphic"
         values="0 0 0 -1 0 0 0 0 -1 0 0 0 0 -1 0 0 0 0 1 0"
         id="feColorMatrix7353" />
      <feColorMatrix
         id="feColorMatrix7355"
         type="saturate"
         values="0"
         in="fbSourceGraphic"
         result="fbSourceGraphic" />
      <feColorMatrix
         result="fbSourceGraphicAlpha"
         in="fbSourceGraphic"
         values="0 0 0 -1 0 0 0 0 -1 0 0 0 0 -1 0 0 0 0 1 0"
         id="feColorMatrix7357" />
      <feColorMatrix
         id="feColorMatrix7359"
         type="saturate"
         values="0"
         in="fbSourceGraphic"
         result="fbSourceGraphic" />
      <feColorMatrix
         result="fbSourceGraphicAlpha"
         in="fbSourceGraphic"
         values="0 0 0 -1 0 0 0 0 -1 0 0 0 0 -1 0 0 0 0 1 0"
         id="feColorMatrix7361" />
      <feColorMatrix
         id="feColorMatrix7363"
         type="saturate"
         values="0"
         in="fbSourceGraphic"
         result="fbSourceGraphic" />
      <feColorMatrix
         result="fbSourceGraphicAlpha"
         in="fbSourceGraphic"
         values="0 0 0 -1 0 0 0 0 -1 0 0 0 0 -1 0 0 0 0 1 0"
         id="feColorMatrix7365" />
      <feColorMatrix
         id="feColorMatrix7367"
         type="saturate"
         values="0"
         in="fbSourceGraphic"
         result="fbSourceGraphic" />
      <feColorMatrix
         result="fbSourceGraphicAlpha"
         in="fbSourceGraphic"
         values="0 0 0 -1 0 0 0 0 -1 0 0 0 0 -1 0 0 0 0 1 0"
         id="feColorMatrix7369" />
      <feColorMatrix
         id="feColorMatrix7371"
         type="saturate"
         values="0"
         in="fbSourceGraphic"
         result="fbSourceGraphic" />
      <feColorMatrix
         result="fbSourceGraphicAlpha"
         in="fbSourceGraphic"
         values="0 0 0 -1 0 0 0 0 -1 0 0 0 0 -1 0 0 0 0 1 0"
         id="feColorMatrix7373" />
      <feColorMatrix
         id="feColorMatrix7375"
         type="saturate"
         values="0"
         in="fbSourceGraphic"
         result="fbSourceGraphic" />
      <feColorMatrix
         result="fbSourceGraphicAlpha"
         in="fbSourceGraphic"
         values="0 0 0 -1 0 0 0 0 -1 0 0 0 0 -1 0 0 0 0 1 0"
         id="feColorMatrix7377" />
      <feColorMatrix
         id="feColorMatrix7379"
         type="saturate"
         values="0"
         in="fbSourceGraphic"
         result="fbSourceGraphic" />
      <feColorMatrix
         result="fbSourceGraphicAlpha"
         in="fbSourceGraphic"
         values="0 0 0 -1 0 0 0 0 -1 0 0 0 0 -1 0 0 0 0 1 0"
         id="feColorMatrix7381" />
      <feColorMatrix
         id="feColorMatrix7383"
         type="saturate"
         values="0"
         in="fbSourceGraphic"
         result="fbSourceGraphic" />
      <feColorMatrix
         result="fbSourceGraphicAlpha"
         in="fbSourceGraphic"
         values="0 0 0 -1 0 0 0 0 -1 0 0 0 0 -1 0 0 0 0 1 0"
         id="feColorMatrix7385" />
      <feColorMatrix
         id="feColorMatrix7387"
         type="saturate"
         values="0"
         in="fbSourceGraphic"
         result="fbSourceGraphic" />
      <feColorMatrix
         result="fbSourceGraphicAlpha"
         in="fbSourceGraphic"
         values="0 0 0 -1 0 0 0 0 -1 0 0 0 0 -1 0 0 0 0 1 0"
         id="feColorMatrix7389" />
      <feColorMatrix
         id="feColorMatrix7391"
         type="saturate"
         values="0"
         in="fbSourceGraphic"
         result="fbSourceGraphic" />
      <feColorMatrix
         result="fbSourceGraphicAlpha"
         in="fbSourceGraphic"
         values="0 0 0 -1 0 0 0 0 -1 0 0 0 0 -1 0 0 0 0 1 0"
         id="feColorMatrix7393" />
      <feColorMatrix
         id="feColorMatrix7395"
         type="saturate"
         values="0"
         in="fbSourceGraphic"
         result="fbSourceGraphic" />
      <feColorMatrix
         result="fbSourceGraphicAlpha"
         in="fbSourceGraphic"
         values="0 0 0 -1 0 0 0 0 -1 0 0 0 0 -1 0 0 0 0 1 0"
         id="feColorMatrix7397" />
      <feColorMatrix
         id="feColorMatrix7399"
         type="saturate"
         values="0"
         in="fbSourceGraphic"
         result="fbSourceGraphic" />
      <feColorMatrix
         result="fbSourceGraphicAlpha"
         in="fbSourceGraphic"
         values="0 0 0 -1 0 0 0 0 -1 0 0 0 0 -1 0 0 0 0 1 0"
         id="feColorMatrix7401" />
      <feColorMatrix
         id="feColorMatrix7403"
         type="saturate"
         values="0"
         in="fbSourceGraphic"
         result="fbSourceGraphic" />
      <feColorMatrix
         result="fbSourceGraphicAlpha"
         in="fbSourceGraphic"
         values="0 0 0 -1 0 0 0 0 -1 0 0 0 0 -1 0 0 0 0 1 0"
         id="feColorMatrix7405" />
      <feColorMatrix
         id="feColorMatrix7407"
         type="saturate"
         values="0"
         in="fbSourceGraphic"
         result="fbSourceGraphic" />
      <feColorMatrix
         result="fbSourceGraphicAlpha"
         in="fbSourceGraphic"
         values="0 0 0 -1 0 0 0 0 -1 0 0 0 0 -1 0 0 0 0 1 0"
         id="feColorMatrix7409" />
      <feColorMatrix
         id="feColorMatrix7411"
         type="saturate"
         values="0"
         in="fbSourceGraphic"
         result="fbSourceGraphic" />
      <feColorMatrix
         result="fbSourceGraphicAlpha"
         in="fbSourceGraphic"
         values="0 0 0 -1 0 0 0 0 -1 0 0 0 0 -1 0 0 0 0 1 0"
         id="feColorMatrix7413" />
      <feColorMatrix
         id="feColorMatrix7415"
         type="saturate"
         values="0"
         in="fbSourceGraphic" />
    </filter>
    <filter
       x="0"
       y="0"
       width="1"
       height="1"
       color-interpolation-filters="sRGB"
       id="filter6574">
      <feFlood
         id="feFlood6576"
         result="result1"
         flood-opacity="0"
         flood-color="rgb(128,128,128)" />
      <feBlend
         in2="SourceGraphic"
         mode="normal"
         result="result2"
         id="feBlend6578" />
      <feComposite
         in2="SourceGraphic"
         operator="arithmetic"
         k1="0"
         k2="1"
         k3="0"
         k4="0"
         result="result3"
         id="feComposite6580" />
      <feComposite
         in2="SourceGraphic"
         operator="in"
         id="feComposite6582" />
    </filter>
  </defs>
  <metadata
     id="metadata7">
    <rdf:RDF>
      <cc:Work
         rdf:about="">
        <dc:format>image/svg+xml</dc:format>
        <dc:type
           rdf:resource="http://purl.org/dc/dcmitype/StillImage" />
        <dc:title />
      </cc:Work>
    </rdf:RDF>
  </metadata>
  <a
     id="a94"
     target="_top"
     xlink:href="/arsenal"
     transform="translate(-2.464809,-583.17928)">
    <g
       id="g7417"
       transform="matrix(1.6342863,0,0,1.6342863,-272.6678,981.32872)">
      <path
         inkscape:connector-curvature="0"
         style="fill:#ffffff;stroke:#ffffff;stroke-width:0.79299998;stroke-miterlimit:282;filter:url(#filter4677)"
         id="path3171"
         transform="matrix(0.35598405,0,0,0.35598405,323.80503,-216.08499)"
         d="M 161.2,11.1 C 123.6,11.1 83.3,16.7 46.9,30.5 9.1,181.1 37,291 161.5,367.9 l -0.2,-356.8 0,0 z m 0.2,356.8 C 285.9,291 313.7,181 276,30.4 239.5,16.7 199.2,11.1 161.6,11.1 l -0.2,356.8 0,0 z" />
      <path
         inkscape:connector-curvature="0"
         style="fill:#ff0b0b;stroke:#ff0b0b;stroke-width:0.79299998;stroke-miterlimit:282;filter:url(#filter4677)"
         id="path3173"
         transform="matrix(0.35598405,0,0,0.35598405,323.80503,-216.08499)"
         d="M 161.4,11.1 C 123.6,11.1 85.3,16.8 54.3,27.6 15.2,185.4 46.6,292 161.5,364.8 l 0,-353.8 0,0 z" />
      <path
         inkscape:connector-curvature="0"
         style="fill:#f3000b;stroke:#f3000b;stroke-width:0.79299998;stroke-miterlimit:282;filter:url(#filter4677)"
         id="path3175"
         transform="matrix(0.35598405,0,0,0.35598405,323.80503,-216.08499)"
         d="m 161.5,11.1 c 37.8,0 76.1,5.7 107.2,16.5 39.1,157.8 7.7,264.4 -107.2,337.2 l 0,-353.8 0,0 z" />
      <path
         inkscape:connector-curvature="0"
         style="fill:#ffffff;filter:url(#filter4677)"
         id="path3177"
         transform="matrix(0.35598405,0,0,0.35598405,323.80503,-216.08499)"
         d="m 112.6,249.2 c -16.7,11.4 -30,15.6 -45.4,19.6 l -9.3,-14.5 c 14.2,-7.2 28.8,-17.2 43.6,-31.6 1.2,14 7.8,24 11.1,26.4 l 0,0 z" />
      <path
         inkscape:connector-curvature="0"
         style="fill:#ad9052;filter:url(#filter4677)"
         id="path3179"
         transform="matrix(0.35598405,0,0,0.35598405,323.80503,-216.08499)"
         d="M 110.3,248.6 C 94.5,259.5 72.4,267 47.2,270.7 l -5.1,-7.8 c 21.6,-8.1 42.5,-20.2 58.7,-37.1 2.4,10.9 6.2,18.1 9.6,22.8 l 0,0 z" />
      <path
         inkscape:connector-curvature="0"
         style="fill:#ffffff;filter:url(#filter4677)"
         id="path3181"
         transform="matrix(0.35598405,0,0,0.35598405,323.80503,-216.08499)"
         d="m 68.2,182.2 c 0,6.1 -4.9,11 -11,11 -6.1,0 -11,-4.9 -11,-11 l 0,0 c 0,-6.1 4.9,-11 11,-11 6.1,0 11,4.9 11,11 l 0,0 z" />
      <path
         inkscape:connector-curvature="0"
         style="fill:#ffffff;filter:url(#filter4677)"
         id="path3183"
         transform="matrix(0.35598405,0,0,0.35598405,323.80503,-216.08499)"
         d="M 67,160.6 V 202 h 32.6 c 2.1,-13.9 10,-28.6 27.9,-41.4 H 67" />
      <path
         inkscape:connector-curvature="0"
         style="fill:#ffffff;filter:url(#filter4677)"
         id="path3185"
         transform="matrix(0.35598405,0,0,0.35598405,323.80503,-216.08499)"
         d="M 68.3,202 C 61,202.1 55,193 54.9,181.5 c -0.1,-11.4 5.8,-20.8 13.1,-21 0.1,0 0.1,0 0.2,0" />
      <path
         inkscape:connector-curvature="0"
         style="fill:#ad9052;filter:url(#filter4677)"
         id="path3187"
         transform="matrix(0.35598405,0,0,0.35598405,323.80503,-216.08499)"
         d="m 63.6,182.2 c 0,4.7 -3.4,8.5 -7.6,8.5 -4.2,0 -7.6,-3.8 -7.6,-8.5 l 0,0 c 0,-4.7 3.4,-8.5 7.6,-8.5 4.2,0 7.6,3.8 7.6,8.5 l 0,0 z" />
      <path
         inkscape:connector-curvature="0"
         style="fill:#ad9052;filter:url(#filter4677)"
         id="path3189"
         transform="matrix(0.35598405,0,0,0.35598405,323.80503,-216.08499)"
         d="M 67.9,162.8 V 200 h 32.4 c 2.6,-12.4 8.8,-25.5 24.5,-37.2 H 67.9" />
      <path
         inkscape:connector-curvature="0"
         style="fill:#ad9052;filter:url(#filter4677)"
         id="path3191"
         transform="matrix(0.35598405,0,0,0.35598405,323.80503,-216.08499)"
         d="m 69.1,200 c -6.8,0.1 -12.5,-8.1 -12.6,-18.4 -0.1,-10.3 5.4,-18.7 12.3,-18.9 0.1,0 0.1,0 0.2,0" />
      <path
         inkscape:connector-curvature="0"
         style="fill:#ffffff;filter:url(#filter4677)"
         id="path3193"
         transform="matrix(0.35598405,0,0,0.35598405,323.80503,-216.08499)"
         d="m 223.3,211.7 c 0,34.6 -28,62.5 -62.5,62.5 -34.5,0 -62.5,-28 -62.5,-62.5 l 0,0 c 0,-34.6 28,-62.5 62.5,-62.5 34.5,0 62.5,28 62.5,62.5 l 0,0 0,0 z" />
      <path
         inkscape:connector-curvature="0"
         style="fill:#ad9052;filter:url(#filter4677)"
         id="path3195"
         transform="matrix(0.35598405,0,0,0.35598405,323.80503,-216.08499)"
         d="m 220.1,211.7 c 0,32.7 -26.5,59.3 -59.2,59.3 -32.7,0 -59.2,-26.5 -59.2,-59.3 l 0,0 c 0,-32.7 26.5,-59.3 59.2,-59.3 32.7,0 59.2,26.5 59.2,59.3 l 0,0 0,0 z" />
      <path
         inkscape:connector-curvature="0"
         style="fill:#ffffff;filter:url(#filter4677)"
         id="path3197"
         transform="matrix(0.35598405,0,0,0.35598405,323.80503,-216.08499)"
         d="m 210.2,211.7 c 0,27.3 -22.1,49.4 -49.4,49.4 -27.3,0 -49.4,-22.1 -49.4,-49.4 l 0,0 c 0,-27.3 22.1,-49.4 49.4,-49.4 27.3,0 49.4,22.1 49.4,49.4 l 0,0 0,0 z" />
      <path
         inkscape:connector-curvature="0"
         style="fill:#ad9052;filter:url(#filter4677)"
         id="path3199"
         transform="matrix(0.35598405,0,0,0.35598405,323.80503,-216.08499)"
         d="m 207,211.7 c 0,25.5 -20.7,46.1 -46.1,46.1 -25.4,0 -46.1,-20.6 -46.1,-46.1 l 0,0 c 0,-25.5 20.7,-46.1 46.1,-46.1 25.5,0 46.1,20.6 46.1,46.1 l 0,0 0,0 z" />
      <path
         inkscape:connector-curvature="0"
         style="fill:#ffffff;filter:url(#filter4677)"
         id="path3201"
         transform="matrix(0.35598405,0,0,0.35598405,323.80503,-216.08499)"
         d="m 180.1,211.7 c 0,10.6 -8.6,19.2 -19.2,19.3 -10.6,0 -19.3,-8.6 -19.3,-19.2 v 0 c 0,-10.6 8.6,-19.2 19.2,-19.2 10.6,0 19.2,8.6 19.2,19.2 0,0 0,0 0,0 l 0,0 z" />
      <path
         inkscape:connector-curvature="0"
         style="fill:#ad9052;filter:url(#filter4677)"
         id="path3203"
         transform="matrix(0.35598405,0,0,0.35598405,323.80503,-216.08499)"
         d="m 177.8,211.7 c 0,9.4 -7.6,17 -16.9,17 -9.4,0 -17,-7.6 -17,-16.9 v 0 c 0,-9.4 7.6,-17 17,-17 9.4,0 17,7.6 17,16.9 v 0 l 0,0 z" />
      <path
         inkscape:connector-curvature="0"
         style="fill:#ffffff;filter:url(#filter4677)"
         id="path3205"
         transform="matrix(0.35598405,0,0,0.35598405,323.80503,-216.08499)"
         d="m 169.6,211.7 c 0,4.8 -3.9,8.7 -8.7,8.7 -4.8,0 -8.7,-3.9 -8.7,-8.7 l 0,0 c 0,-4.8 3.9,-8.7 8.7,-8.7 4.8,0 8.7,3.9 8.7,8.7 l 0,0 0,0 z" />
      <path
         inkscape:connector-curvature="0"
         style="fill:#ad9052;filter:url(#filter4677)"
         id="path3207"
         transform="matrix(0.35598405,0,0,0.35598405,323.80503,-216.08499)"
         d="m 167.1,211.7 c 0,3.5 -2.8,6.3 -6.3,6.3 -3.5,0 -6.3,-2.8 -6.3,-6.3 l 0,0 c 0,-3.5 2.8,-6.3 6.3,-6.3 3.5,0 6.3,2.8 6.3,6.3 l 0,0 0,0 z" />
      <rect
         style="fill:#ffffff;filter:url(#filter4677)"
         id="rect3209"
         transform="matrix(0.35598405,0,0,0.35598405,323.80503,-216.08499)"
         y="164.5"
         x="154.2"
         height="30.6"
         width="13.1" />
      <rect
         style="fill:#ad9052;filter:url(#filter4677)"
         id="rect3211"
         transform="matrix(0.35598405,0,0,0.35598405,323.80503,-216.08499)"
         y="160.10001"
         x="156.2"
         height="39"
         width="9" />
      <polygon
         style="fill:#ffffff;filter:url(#filter4677)"
         id="polygon3213"
         transform="matrix(0.35598405,0,0,0.35598405,323.80503,-216.08499)"
         points="178.9,209.5 171.8,198.5 197.4,181.8 204.6,192.8 " />
      <polygon
         style="fill:#ad9052;filter:url(#filter4677)"
         id="polygon3215"
         transform="matrix(0.35598405,0,0,0.35598405,323.80503,-216.08499)"
         points="174.5,210 169.6,202.3 202.2,181.1 207.1,188.7 " />
      <polygon
         style="fill:#ffffff;filter:url(#filter4677)"
         id="polygon3217"
         transform="matrix(0.35598405,0,0,0.35598405,323.80503,-216.08499)"
         points="123.6,241.7 116.5,230.6 142.4,214.2 149.4,225.3 " />
      <polygon
         style="fill:#ad9052;filter:url(#filter4677)"
         id="polygon3219"
         transform="matrix(0.35598405,0,0,0.35598405,323.80503,-216.08499)"
         points="118.8,242.1 113.9,234.4 146.8,213.5 151.7,221.2 " />
      <rect
         style="fill:#ffffff;filter:url(#filter4677)"
         id="rect3221"
         transform="matrix(0.35598405,0,0,0.35598405,323.80503,-216.08499)"
         y="229.3"
         x="154.2"
         height="30.6"
         width="13.1" />
      <rect
         style="fill:#ad9052;filter:url(#filter4677)"
         id="rect3223"
         transform="matrix(0.35598405,0,0,0.35598405,323.80503,-216.08499)"
         y="224.89999"
         x="156.2"
         height="38.900002"
         width="9" />
      <path
         inkscape:connector-curvature="0"
         style="fill:#ff0b0b;stroke:#ff0b0b;stroke-width:0.31150001;stroke-miterlimit:282;filter:url(#filter4677)"
         id="path3225"
         transform="matrix(0.35598405,0,0,0.35598405,323.80503,-216.08499)"
         d="m 148,226 c 1.8,1.5 3.7,2.8 6.2,3.9 l -0.1,27.3 c -12.4,-1.6 -21.8,-7.7 -28.9,-16.4 L 148,226" />
      <path
         inkscape:connector-curvature="0"
         style="fill:#f3000b;stroke:#f3000b;stroke-width:0.31150001;stroke-miterlimit:282;filter:url(#filter4677)"
         id="path3227"
         transform="matrix(0.35598405,0,0,0.35598405,323.80503,-216.08499)"
         d="m 173.6,226.1 c -1.8,1.5 -3.7,2.8 -6.2,3.8 l 0,27.3 c 12.4,-1.6 21.8,-7.7 28.9,-16.4 L 173.6,226" />
      <path
         inkscape:connector-curvature="0"
         style="fill:#f3000b;filter:url(#filter4677)"
         id="path3229"
         transform="matrix(0.35598405,0,0,0.35598405,323.80503,-216.08499)"
         d="m 179.8,214.6 27.1,-3.3 c 0.2,6.8 -1.4,12.7 -3.7,18.5 l -23.5,-15.2" />
      <path
         inkscape:connector-curvature="0"
         style="fill:#ffffff;stroke:#ffffff;stroke-width:0.31150001;stroke-miterlimit:282;filter:url(#filter4677)"
         id="path3231"
         transform="matrix(0.35598405,0,0,0.35598405,323.80503,-216.08499)"
         d="m 179.9,214.5 c 0.1,-0.4 0.1,-0.8 0.2,-2.1 l 26.8,-3.5 c 0.1,1.2 0,1.7 0,2.3 l -27,3.3 0,0 z" />
      <path
         inkscape:connector-curvature="0"
         style="fill:#ffffff;filter:url(#filter4677)"
         id="path3233"
         transform="matrix(0.35598405,0,0,0.35598405,323.80503,-216.08499)"
         d="m 219.5,192 h 35.1 c -1.1,4.2 -2.2,8.4 -7.2,10.3 -8.1,3 -24.8,5.9 -24.8,5.9 -0.3,-4.6 -1.3,-10.8 -3.1,-16.2 l 0,0 z" />
      <path
         inkscape:connector-curvature="0"
         style="fill:#ffffff;filter:url(#filter4677)"
         id="path3235"
         transform="matrix(0.35598405,0,0,0.35598405,323.80503,-216.08499)"
         d="m 195,160 91.7,0.1 -3.2,33.5 -62.6,3.3 c -3.4,-15 -14.8,-29.3 -25.8,-36.9 l 0,0 z" />
      <path
         inkscape:connector-curvature="0"
         style="fill:#ad9052;filter:url(#filter4677)"
         id="path3237"
         transform="matrix(0.35598405,0,0,0.35598405,323.80503,-216.08499)"
         d="m 198.3,162.4 117.1,0.1 -4.5,27.3 -90.9,4.5 c -3.6,-13.6 -11.8,-23.5 -21.7,-31.9 l 0,0 z" />
      <path
         inkscape:connector-curvature="0"
         style="fill:#ad9052;filter:url(#filter4677)"
         id="path3239"
         transform="matrix(0.35598405,0,0,0.35598405,323.80503,-216.08499)"
         d="m 219.5,192 h 32.3 c -1.1,3.7 -1.8,7.1 -6.6,8.7 -7.6,2.7 -22.8,4.8 -22.8,4.8 -0.6,-4.4 -1.6,-8.9 -3,-13.6 l 0,0 z" />
      <polygon
         style="fill:#ffffff;filter:url(#filter4677)"
         id="polygon3257"
         transform="matrix(0.35598405,0,0,0.35598405,323.80503,-216.08499)"
         points="150.5,196.1 143.3,207.1 117.7,190.3 124.9,179.3 " />
      <polygon
         style="fill:#ad9052;filter:url(#filter4677)"
         id="polygon3259"
         transform="matrix(0.35598405,0,0,0.35598405,323.80503,-216.08499)"
         points="152.8,200.3 147.8,207.9 115.3,186.5 120.3,178.9 " />
      <polygon
         style="fill:#ffffff;filter:url(#filter4677)"
         id="polygon3261"
         transform="matrix(0.35598405,0,0,0.35598405,323.80503,-216.08499)"
         points="205.2,231 198,242 172.4,225.2 179.6,214.2 " />
      <polygon
         style="fill:#ad9052;filter:url(#filter4677)"
         id="polygon3263"
         transform="matrix(0.35598405,0,0,0.35598405,323.80503,-216.08499)"
         points="207.5,235.2 202.5,242.8 170,221.5 175,213.9 " />
    </g>
  </a>
  <a
     id="a136"
     target="_top"
     xlink:href="#"
     transform="translate(-2.464809,-624.36173)">
    <g
       style="fill:none;stroke:none"
       id="Google +"
       transform="matrix(1.2468164,0,0,1.2468164,499.32683,959.39055)">
      <path
         inkscape:connector-curvature="0"
         style="fill:#d34836"
         id="path3942"
         d="m 0.1,30 c 0,-16.6 13.5,-30 30,-30 16.6,0 30,13.4 30,30 0,16.6 -13.5,30 -30,30 -16.5,0 -30,-13.4 -30,-30 z m 0,0" />
      <path
         inkscape:connector-curvature="0"
         style="fill:#ffffff"
         id="path3944"
         d="m 59.3,23.1 -7.1,0 0,7.9 -3.3,0 0,-7.9 -7.8,0 0,-3.3 7.8,0 0,-7.8 3.3,0 0,7.8 6,0 c 0.4,1.1 0.8,2.2 1.1,3.3 z m 0,0" />
      <path
         inkscape:connector-curvature="0"
         style="fill:#ffffff"
         id="path3946"
         d="m 8.4,49.4 c 0.8,-1.4 2.1,-2.8 4.1,-3.9 4.4,-2.7 10.2,-3 13.4,-3.2 -1,-1.3 -2.1,-2.6 -2.1,-4.8 0,-1.2 0.4,-1.9 0.7,-2.7 C 23.7,34.9 23,35 22.3,35 14.9,35 10.7,29.5 10.7,24 c 0,-3.2 1.5,-6.8 4.5,-9.4 4,-3.3 8.8,-3.8 12.5,-3.8 l 14.4,0 -4.5,2.5 -4.3,0 c 1.6,1.3 5,4.1 5,9.4 0,5.2 -2.9,7.6 -5.9,9.9 -0.9,0.9 -2,1.9 -2,3.4 0,1.5 1,2.4 1.8,3 l 2.5,2 c 3.1,2.6 5.9,5 5.9,9.8 0,3.2 -1.5,6.4 -4.4,8.8 -1.6,0.3 -3.2,0.4 -4.8,0.4 2.9,-1.3 4.5,-3.6 4.5,-6.5 0,-3.6 -2.3,-5.5 -7.6,-9.2 -0.6,-0.1 -0.9,-0.1 -1.6,-0.1 -0.6,0 -4.4,0.1 -7.3,1.1 -1.5,0.6 -6,2.2 -6,7.2 0,0.5 0.1,1.1 0.2,1.6 C 6,48.6 9.2,49.4 8.4,49.4 z M 32,25.9 C 32,20.8 29,13 23.2,13 c -1.8,0 -3.8,0.9 -4.9,2.3 -1.2,1.5 -1.5,3.4 -1.5,5.2 0,4.7 2.7,12.5 8.8,12.5 1.7,0 3.6,-0.9 4.8,-2 1.6,-1.6 1.7,-3.8 1.7,-5.1 z m 0,0" />
      <path
         inkscape:connector-curvature="0"
         style="fill:#000000;fill-opacity:0.07999998"
         id="path3948"
         d="m 60.3,30.2 c 0,16.6 -13.5,30 -30,30 -6.2,0 -11.9,-1.8 -16.6,-5 L 48,6 c 7.4,5.5 12.3,14.3 12.3,24.2 z m 0,0" />
    </g>
  </a>
  <a
     id="a143"
     target="_top"
     xlink:href="#"
     transform="translate(-2.464809,-624.36173)">
    <g
       style="fill:none;stroke:none"
       id="LinkedIN"
       transform="matrix(1.2481962,0,0,1.2481962,398.89919,959.53293)">
      <path
         inkscape:connector-curvature="0"
         style="fill:#007bb6"
         id="path3960"
         d="m 0.5,30 c 0,-16.6 13.4,-30 30,-30 16.6,0 30,13.4 30,30 0,16.6 -13.4,30 -30,30 -16.6,0 -30,-13.4 -30,-30 z m 0,0" />
      <path
         inkscape:connector-curvature="0"
         style="fill:#ffffff"
         id="path3962"
         d="m 22.8,23.7 -6.8,0 0,20.4 6.8,0 0,-20.4 z m 0,0" />
      <path
         inkscape:connector-curvature="0"
         style="fill:#ffffff"
         id="path3964"
         d="m 23.3,17.4 c 0,-2 -1.5,-3.5 -3.8,-3.5 -2.3,0 -3.8,1.5 -3.8,3.5 0,2 1.5,3.5 3.8,3.5 l 0,0 c 2.4,0 3.8,-1.6 3.8,-3.5 z m 0,0" />
      <path
         inkscape:connector-curvature="0"
         style="fill:#ffffff"
         id="path3966"
         d="m 47.4,32.4 c 0,-6.3 -3.4,-9.2 -7.8,-9.2 -3.6,0 -5.2,2 -6.1,3.4 l 0,-2.9 -6.8,0 c 0.1,1.9 0,20.4 0,20.4 l 6.8,0 0,-11.4 c 0,-0.6 0,-1.2 0.2,-1.7 0.5,-1.2 1.6,-2.5 3.5,-2.5 2.5,0 3.4,1.9 3.4,4.6 l 0,10.9 6.8,0 0,-11.7 z m 0,0" />
      <path
         inkscape:connector-curvature="0"
         style="fill:#000000;fill-opacity:0.07999998"
         id="path3968"
         d="m 60.5,30 c 0,16.6 -13.4,30 -30,30 -6.2,0 -11.9,-1.8 -16.6,-5 L 48.3,5.8 c 7.4,5.5 12.2,14.3 12.2,24.2 z m 0,0" />
    </g>
  </a>
  <a
     id="a151"
     target="_blank"
     xlink:href="https://twitter.com/divyun"
     transform="translate(-2.4648078,-624.36173)">
    <g
       style="fill:none;stroke:none"
       id="Twitter"
       transform="matrix(1.2481963,0,0,1.2481963,299.46917,959.53293)">
      <path
         inkscape:connector-curvature="0"
         style="fill:#4099ff"
         id="path4002"
         d="M 0,30 C 0,13.4 13.5,0 30,0 46.6,0 60,13.4 60,30 60,46.6 46.5,60 30,60 13.5,60 0,46.6 0,30 z m 0,0" />
      <path
         inkscape:connector-curvature="0"
         style="fill:#ffffff"
         id="path4004"
         d="m 29.3,23.9 0.1,1 -1,-0.1 c -3.8,-0.5 -7.2,-2.1 -10,-4.9 l -1.4,-1.4 -0.4,1 c -0.8,2.3 -0.3,4.7 1.3,6.3 0.8,0.9 0.7,1 -0.8,0.5 -0.5,-0.2 -0.9,-0.3 -1,-0.2 -0.1,0.1 0.4,2.1 0.8,2.8 0.5,1.1 1.7,2.1 2.9,2.7 l 1,0.5 -1.2,0 c -1.2,0 -1.2,0 -1.1,0.5 0.4,1.4 2.1,2.8 3.9,3.5 l 1.3,0.4 -1.1,0.7 c -1.7,1 -3.7,1.5 -5.6,1.6 -0.9,0 -1.7,0.1 -1.7,0.2 0,0.2 2.6,1.4 4,1.9 4.5,1.4 9.8,0.8 13.8,-1.6 2.8,-1.7 5.7,-5 7,-8.2 0.7,-1.7 1.4,-4.9 1.4,-6.4 0,-1 0.1,-1.1 1.2,-2.3 0.7,-0.7 1.3,-1.4 1.5,-1.6 0.2,-0.4 0.2,-0.4 -0.9,0 -1.8,0.6 -2,0.6 -1.2,-0.4 0.7,-0.7 1.4,-1.9 1.4,-2.3 0,-0.1 -0.3,0 -0.7,0.2 -0.4,0.2 -1.2,0.5 -1.8,0.7 l -1.1,0.4 -1,-0.7 c -0.6,-0.4 -1.4,-0.8 -1.8,-0.9 -1.1,-0.3 -2.7,-0.3 -3.7,0.1 -2.6,1 -4.3,3.4 -4.1,6.1 z m 0,0" />
      <path
         inkscape:connector-curvature="0"
         style="fill:#000000;fill-opacity:0.07999998"
         id="path4006"
         d="m 60.1,30 c 0,16.6 -13.5,30 -30,30 -6.2,0 -11.9,-1.8 -16.7,-5 L 47.8,5.8 c 7.5,5.5 12.3,14.3 12.3,24.2 z m 0,0" />
    </g>
  </a>
  <a
     id="a157"
     target="_top"
     xlink:href="#"
     transform="translate(-2.464809,-624.36173)">
    <g
       style="fill:none;stroke:none"
       id="Github"
       transform="matrix(1.2481962,0,0,1.2481962,599.04168,959.53294)">
      <path
         inkscape:connector-curvature="0"
         style="fill:#333333"
         id="path4023"
         d="m 0.3,30 c 0,-16.6 13.5,-30 30,-30 16.6,0 30,13.4 30,30 0,16.6 -13.5,30 -30,30 -16.5,0 -30,-13.4 -30,-30 z m 0,0" />
      <path
         inkscape:connector-curvature="0"
         style="fill:#ffffff"
         id="path4025"
         d="m 18.5,31.9 c 1.4,2.5 4.1,4.1 8.7,4.5 -0.7,0.5 -1.4,1.4 -1.6,2.5 -0.8,0.5 -2.5,0.7 -3.8,0.3 -1.8,-0.6 -2.5,-4.1 -5.2,-3.6 -0.6,0.1 -0.5,0.5 0,0.8 0.8,0.5 1.6,1.2 2.2,2.6 0.5,1.1 1.4,3 4.5,3 1.2,0 2.1,-0.1 2.1,-0.1 0,0 0,2.7 0,3.8 0,1.2 -1.7,1.6 -1.7,2.2 0,0.2 0.6,0.3 1,0.3 0.9,0 2.7,-0.7 2.7,-2 0,-1 0,-4.4 0,-5 0,-1.3 0.7,-1.7 0.7,-1.7 0,0 0.1,6.9 -0.2,7.9 -0.3,1.1 -0.8,0.9 -0.8,1.4 0,0.7 2.2,0.2 3,-1.4 0.6,-1.2 0.3,-8 0.3,-8 l 0.6,0 c 0,0 0,3.1 0,4.5 0,1.5 -0.1,3.3 0.8,4.2 0.6,0.6 2.5,1.6 2.5,0.7 0,-0.5 -1,-1 -1,-2.4 l 0,-6.7 c 0.8,0 0.7,2.2 0.7,2.2 l 0.1,4.1 c 0,0 -0.2,1.5 1.6,2.1 0.6,0.2 2,0.3 2.1,-0.1 0.1,-0.4 -1.7,-0.9 -1.7,-2.1 0,-0.7 0,-1.1 0,-4.2 0,-3.1 -0.4,-4.2 -1.9,-5.1 4.5,-0.5 7.3,-1.6 8.7,-4.5 0.1,0 0.6,-1.4 0.5,-1.4 0.3,-1.1 0.5,-2.4 0.5,-4 0,-4.2 -2.1,-5.7 -2.5,-6.4 0.6,-3.2 -0.1,-4.6 -0.4,-5.1 -1.2,-0.4 -4,1 -5.6,2.1 -2.6,-0.7 -8,-0.7 -10,0.2 -3.8,-2.6 -5.7,-2.2 -5.7,-2.2 0,0 -1.3,2.3 -0.3,5.6 -1.2,1.5 -2.2,2.6 -2.2,5.5 0,1.6 0.2,3.1 0.6,4.4 -0.1,0 0.6,1.4 0.6,1.4 z m 0,0" />
      <path
         inkscape:connector-curvature="0"
         style="fill:#000000;fill-opacity:0.07999998"
         id="path4027"
         d="m 60.4,30 c 0,16.6 -13.5,30 -30,30 -6.2,0 -11.9,-1.8 -16.6,-5 L 48.2,5.8 c 7.4,5.5 12.2,14.3 12.2,24.2 z m 0,0" />
    </g>
  </a>
  <flowRoot
     style="font-size:40px;font-style:normal;font-weight:normal;line-height:125%;letter-spacing:0px;word-spacing:0px;fill:#000000;fill-opacity:1;stroke:none;font-family:Sans"
     xml:space="preserve"
     id="flowRoot14303"
     transform="translate(-2.9956378,18.087168)"><flowRegion
       id="flowRegion14305"><rect
         id="rect14307"
         y="219.8"
         x="250.5"
         height="107.1"
         width="381.79999" /></flowRegion><flowPara
       id="flowPara14309" /></flowRoot>  <text
     x="484.28906"
     y="281.9664"
     id="text3327"
     xml:space="preserve"
     style="font-size:30.93698883px;font-style:normal;font-variant:normal;font-weight:500;font-stretch:normal;text-align:center;line-height:100%;letter-spacing:0px;word-spacing:0px;text-anchor:middle;fill:#990000;fill-opacity:1;stroke:none;font-family:Century Schoolbook L;-inkscape-font-specification:Century Schoolbook L Medium"
     sodipodi:linespacing="100%"
     transform="scale(0.99630321,1.0037105)"><tspan
       x="485.54993"
       y="281.9664"
       id="tspan14301"
       style="font-size:22px;font-style:normal;font-variant:normal;font-weight:normal;font-stretch:normal;line-height:100%;letter-spacing:2.47464633px;fill:#990000;font-family:Courier;-inkscape-font-specification:Courier">Divyun Raje Vaid, the sXe Gooner &amp; Programmer</tspan></text>
  <g
     id="g3299"
     style="fill:#333333"
     transform="translate(-2.9956378,51.245408)">
    <text
       sodipodi:linespacing="125%"
       style="font-size:271.68920898px;font-style:normal;font-weight:normal;line-height:125%;letter-spacing:0px;word-spacing:0px;fill:#333333;fill-opacity:1;stroke:none;font-family:Sans"
       xml:space="preserve"
       id="text3321"
       y="200.0753"
       x="-23.669172"><tspan
         style="font-style:normal;font-variant:normal;font-weight:normal;font-stretch:normal;fill:#333333;font-family:DejaVu Sans;-inkscape-font-specification:DejaVu Sans"
         id="tspan3323"
         y="200.0753"
         x="-23.669172">DI</tspan></text>
    <text
       sodipodi:linespacing="125%"
       style="font-size:271.68920898px;font-style:normal;font-weight:normal;line-height:125%;letter-spacing:0px;word-spacing:0px;fill:#333333;fill-opacity:1;stroke:none;font-family:Sans"
       xml:space="preserve"
       id="text3321-6"
       y="197.97533"
       x="437.13083"><tspan
         style="font-style:normal;font-variant:normal;font-weight:normal;font-stretch:normal;fill:#333333;font-family:DejaVu Sans;-inkscape-font-specification:DejaVu Sans"
         id="tspan3323-7"
         y="197.97533"
         x="437.13083">YUN</tspan></text>
  </g>
  <a
     target="_top"
     xlink:href="/nousfactory"
     id="a169"
     transform="translate(637.78413,337.49945)">
    <text
       sodipodi:linespacing="100%"
       id="text3236"
       y="-9.0450354"
       x="229.64169"
       style="font-size:37.77552032px;font-style:normal;font-weight:normal;text-align:center;line-height:100%;letter-spacing:0px;word-spacing:0px;text-anchor:middle;fill:#204a87;fill-opacity:1;stroke:none;font-family:Sans"
       xml:space="preserve"><tspan
         style="font-size:16px;font-style:italic;font-variant:normal;font-weight:normal;font-stretch:normal;text-align:center;line-height:100%;letter-spacing:0px;text-anchor:middle;fill:#204a87;font-family:Courier 10 Pitch;-inkscape-font-specification:Courier 10 Pitch Italic"
         y="-9.0450354"
         x="229.64169"
         sodipodi:role="line"
         id="tspan3206">(click here for)</tspan><tspan
         style="font-size:28px;font-style:normal;font-variant:normal;font-weight:bold;font-stretch:normal;text-align:center;line-height:100%;letter-spacing:0px;text-anchor:middle;fill:#204a87;font-family:Courier 10 Pitch;-inkscape-font-specification:Courier 10 Pitch Bold"
         y="15.931632"
         x="229.64169"
         sodipodi:role="line"
         id="tspan3162">NOUS</tspan><tspan
         style="font-size:28px;font-style:normal;font-variant:normal;font-weight:bold;font-stretch:normal;text-align:center;line-height:100%;letter-spacing:0px;text-anchor:middle;fill:#204a87;font-family:Courier 10 Pitch;-inkscape-font-specification:Courier 10 Pitch Bold"
         y="43.931633"
         x="229.64169"
         sodipodi:role="line"
         id="tspan3229">FACTORY</tspan></text>
  </a>
  <text
     xml:space="preserve"
     style="font-size:40px;font-style:normal;font-weight:normal;line-height:125%;letter-spacing:0px;word-spacing:0px;fill:#000000;fill-opacity:1;stroke:none;font-family:Sans"
     x="-113.69933"
     y="343.75381"
     id="text3337"
     sodipodi:linespacing="125%"><tspan
       sodipodi:role="line"
       id="tspan3339"
       x="-113.69933"
       y="343.75381" /></text>
  <a
     xlink:href="/about.html"
     target="_top"
     id="a175"
     transform="translate(-34,0)">
    <text
       sodipodi:linespacing="104%"
       id="text3236-8"
       y="376.86139"
       x="156.27055"
       style="font-size:37.77552032px;font-style:normal;font-weight:normal;text-align:center;line-height:103.99999619%;letter-spacing:0px;word-spacing:0px;text-anchor:middle;fill:#a40000;fill-opacity:1;stroke:none;font-family:Sans"
       xml:space="preserve"><tspan
         style="font-size:16px;font-style:italic;font-variant:normal;font-weight:normal;font-stretch:normal;text-align:center;line-height:103.99999619%;text-anchor:middle;fill:#a40000;font-family:Courier 10 Pitch;-inkscape-font-specification:Courier 10 Pitch Italic"
         y="376.86139"
         x="156.27055"
         sodipodi:role="line"
         id="tspan3173-2">(click here for)</tspan><tspan
         style="font-size:28px;font-style:normal;font-variant:normal;font-weight:bold;font-stretch:normal;text-align:center;text-anchor:middle;fill:#a40000;font-family:Courier 10 Pitch;-inkscape-font-specification:Courier 10 Pitch Bold"
         y="402.83713"
         x="156.27055"
         sodipodi:role="line"
         id="tspan3219">ABOUT ME</tspan></text>
  </a>
  <a
     xlink:href="/blog"
     target="_top"
     id="a179"
     transform="translate(-696.16622,-60.31359)">
    <text
       sodipodi:linespacing="100%"
       id="text3236-3"
       y="375.56732"
       x="814.06079"
       style="font-size:37.77552032px;font-style:normal;font-weight:normal;text-align:center;line-height:100%;letter-spacing:0px;word-spacing:0px;text-anchor:middle;fill:#a40000;fill-opacity:1;stroke:none;font-family:Sans"
       xml:space="preserve"><tspan
         style="font-size:16px;font-style:italic;font-variant:normal;font-weight:normal;font-stretch:normal;text-align:center;line-height:100%;text-anchor:middle;fill:#a40000;font-family:Courier 10 Pitch;-inkscape-font-specification:Courier 10 Pitch Italic"
         y="375.56732"
         x="814.06079"
         sodipodi:role="line"
         id="tspan3173-8">(click here for)</tspan><tspan
         style="font-size:28px;font-style:normal;font-variant:normal;font-weight:bold;font-stretch:normal;text-align:center;line-height:100%;text-anchor:middle;fill:#a40000;font-family:Courier 10 Pitch;-inkscape-font-specification:Courier 10 Pitch Bold"
         y="400.54398"
         x="814.06079"
         sodipodi:role="line"
         id="tspan3223">JOURNAL</tspan></text>
  </a>
  <text
     xml:space="preserve"
     style="font-size:40px;font-style:normal;font-weight:normal;line-height:125%;letter-spacing:0px;word-spacing:0px;fill:#a40000;fill-opacity:1;stroke:none;font-family:Sans"
     x="347.85599"
     y="31.424908"
     id="text3225"
     sodipodi:linespacing="125%"><tspan
       sodipodi:role="line"
       id="tspan3227"
       x="347.85599"
       y="31.424908"
       style="font-size:16px;font-style:italic;font-variant:normal;font-weight:normal;font-stretch:normal;text-align:center;text-anchor:middle;fill:#a40000;font-family:Courier 10 Pitch;-inkscape-font-specification:Courier 10 Pitch Italic">(arsenal blog)</tspan></text>
</svg>
