<?xml version="1.0" encoding="UTF-8" standalone="no"?>
<!-- Created with Inkscape (http://www.inkscape.org/) -->

<svg
   xmlns:dc="http://purl.org/dc/elements/1.1/"
   xmlns:cc="http://creativecommons.org/ns#"
   xmlns:rdf="http://www.w3.org/1999/02/22-rdf-syntax-ns#"
   xmlns:svg="http://www.w3.org/2000/svg"
   xmlns="http://www.w3.org/2000/svg"
   version="1.2"
   width="980"
   height="400"
   id="svg2">
  <defs
     id="defs4">
    <filter
       x="0"
       y="0"
       width="1"
       height="1"
       color-interpolation-filters="sRGB"
       id="filter4677">
      <feFlood
         id="feFlood4679"
         result="result1"
         flood-opacity="0"
         flood-color="rgb(128,128,128)" />
      <feBlend
         in2="SourceGraphic"
         mode="normal"
         result="result2"
         id="feBlend4681" />
      <feComposite
         in2="SourceGraphic"
         operator="arithmetic"
         k1="0"
         k2="1"
         k3="0"
         k4="0"
         result="result3"
         id="feComposite4683" />
      <feComposite
         in2="SourceGraphic"
         operator="in"
         result="fbSourceGraphic"
         id="feComposite4685" />
      <feColorMatrix
         result="fbSourceGraphicAlpha"
         in="fbSourceGraphic"
         values="0 0 0 -1 0 0 0 0 -1 0 0 0 0 -1 0 0 0 0 1 0"
         id="feColorMatrix7261" />
      <feColorMatrix
         id="feColorMatrix7263"
         type="saturate"
         values="0"
         in="fbSourceGraphic"
         result="fbSourceGraphic" />
      <feColorMatrix
         result="fbSourceGraphicAlpha"
         in="fbSourceGraphic"
         values="0 0 0 -1 0 0 0 0 -1 0 0 0 0 -1 0 0 0 0 1 0"
         id="feColorMatrix7265" />
      <feColorMatrix
         id="feColorMatrix7267"
         type="saturate"
         values="0"
         in="fbSourceGraphic"
         result="fbSourceGraphic" />
      <feColorMatrix
         result="fbSourceGraphicAlpha"
         in="fbSourceGraphic"
         values="0 0 0 -1 0 0 0 0 -1 0 0 0 0 -1 0 0 0 0 1 0"
         id="feColorMatrix7269" />
      <feColorMatrix
         id="feColorMatrix7271"
         type="saturate"
         values="0"
         in="fbSourceGraphic"
         result="fbSourceGraphic" />
      <feColorMatrix
         result="fbSourceGraphicAlpha"
         in="fbSourceGraphic"
         values="0 0 0 -1 0 0 0 0 -1 0 0 0 0 -1 0 0 0 0 1 0"
         id="feColorMatrix7273" />
      <feColorMatrix
         id="feColorMatrix7275"
         type="saturate"
         values="0"
         in="fbSourceGraphic"
         result="fbSourceGraphic" />
      <feColorMatrix
         result="fbSourceGraphicAlpha"
         in="fbSourceGraphic"
         values="0 0 0 -1 0 0 0 0 -1 0 0 0 0 -1 0 0 0 0 1 0"
         id="feColorMatrix7277" />
      <feColorMatrix
         id="feColorMatrix7279"
         type="saturate"
         values="0"
         in="fbSourceGraphic"
         result="fbSourceGraphic" />
      <feColorMatrix
         result="fbSourceGraphicAlpha"
         in="fbSourceGraphic"
         values="0 0 0 -1 0 0 0 0 -1 0 0 0 0 -1 0 0 0 0 1 0"
         id="feColorMatrix7281" />
      <feColorMatrix
         id="feColorMatrix7283"
         type="saturate"
         values="0"
         in="fbSourceGraphic"
         result="fbSourceGraphic" />
      <feColorMatrix
         result="fbSourceGraphicAlpha"
         in="fbSourceGraphic"
         values="0 0 0 -1 0 0 0 0 -1 0 0 0 0 -1 0 0 0 0 1 0"
         id="feColorMatrix7285" />
      <feColorMatrix
         id="feColorMatrix7287"
         type="saturate"
         values="0"
         in="fbSourceGraphic"
         result="fbSourceGraphic" />
      <feColorMatrix
         result="fbSourceGraphicAlpha"
         in="fbSourceGraphic"
         values="0 0 0 -1 0 0 0 0 -1 0 0 0 0 -1 0 0 0 0 1 0"
         id="feColorMatrix7289" />
      <feColorMatrix
         id="feColorMatrix7291"
         type="saturate"
         values="0"
         in="fbSourceGraphic"
         result="fbSourceGraphic" />
      <feColorMatrix
         result="fbSourceGraphicAlpha"
         in="fbSourceGraphic"
         values="0 0 0 -1 0 0 0 0 -1 0 0 0 0 -1 0 0 0 0 1 0"
         id="feColorMatrix7293" />
      <feColorMatrix
         id="feColorMatrix7295"
         type="saturate"
         values="0"
         in="fbSourceGraphic"
         result="fbSourceGraphic" />
      <feColorMatrix
         result="fbSourceGraphicAlpha"
         in="fbSourceGraphic"
         values="0 0 0 -1 0 0 0 0 -1 0 0 0 0 -1 0 0 0 0 1 0"
         id="feColorMatrix7297" />
      <feColorMatrix
         id="feColorMatrix7299"
         type="saturate"
         values="0"
         in="fbSourceGraphic"
         result="fbSourceGraphic" />
      <feColorMatrix
         result="fbSourceGraphicAlpha"
         in="fbSourceGraphic"
         values="0 0 0 -1 0 0 0 0 -1 0 0 0 0 -1 0 0 0 0 1 0"
         id="feColorMatrix7301" />
      <feColorMatrix
         id="feColorMatrix7303"
         type="saturate"
         values="0"
         in="fbSourceGraphic"
         result="fbSourceGraphic" />
      <feColorMatrix
         result="fbSourceGraphicAlpha"
         in="fbSourceGraphic"
         values="0 0 0 -1 0 0 0 0 -1 0 0 0 0 -1 0 0 0 0 1 0"
         id="feColorMatrix7305" />
      <feColorMatrix
         id="feColorMatrix7307"
         type="saturate"
         values="0"
         in="fbSourceGraphic"
         result="fbSourceGraphic" />
      <feColorMatrix
         result="fbSourceGraphicAlpha"
         in="fbSourceGraphic"
         values="0 0 0 -1 0 0 0 0 -1 0 0 0 0 -1 0 0 0 0 1 0"
         id="feColorMatrix7309" />
      <feColorMatrix
         id="feColorMatrix7311"
         type="saturate"
         values="0"
         in="fbSourceGraphic"
         result="fbSourceGraphic" />
      <feColorMatrix
         result="fbSourceGraphicAlpha"
         in="fbSourceGraphic"
         values="0 0 0 -1 0 0 0 0 -1 0 0 0 0 -1 0 0 0 0 1 0"
         id="feColorMatrix7313" />
      <feColorMatrix
         id="feColorMatrix7315"
         type="saturate"
         values="0"
         in="fbSourceGraphic"
         result="fbSourceGraphic" />
      <feColorMatrix
         result="fbSourceGraphicAlpha"
         in="fbSourceGraphic"
         values="0 0 0 -1 0 0 0 0 -1 0 0 0 0 -1 0 0 0 0 1 0"
         id="feColorMatrix7317" />
      <feColorMatrix
         id="feColorMatrix7319"
         type="saturate"
         values="0"
         in="fbSourceGraphic"
         result="fbSourceGraphic" />
      <feColorMatrix
         result="fbSourceGraphicAlpha"
         in="fbSourceGraphic"
         values="0 0 0 -1 0 0 0 0 -1 0 0 0 0 -1 0 0 0 0 1 0"
         id="feColorMatrix7321" />
      <feColorMatrix
         id="feColorMatrix7323"
         type="saturate"
         values="0"
         in="fbSourceGraphic"
         result="fbSourceGraphic" />
      <feColorMatrix
         result="fbSourceGraphicAlpha"
         in="fbSourceGraphic"
         values="0 0 0 -1 0 0 0 0 -1 0 0 0 0 -1 0 0 0 0 1 0"
         id="feColorMatrix7325" />
      <feColorMatrix
         id="feColorMatrix7327"
         type="saturate"
         values="0"
         in="fbSourceGraphic"
         result="fbSourceGraphic" />
      <feColorMatrix
         result="fbSourceGraphicAlpha"
         in="fbSourceGraphic"
         values="0 0 0 -1 0 0 0 0 -1 0 0 0 0 -1 0 0 0 0 1 0"
         id="feColorMatrix7329" />
      <feColorMatrix
         id="feColorMatrix7331"
         type="saturate"
         values="0"
         in="fbSourceGraphic"
         result="fbSourceGraphic" />
      <feColorMatrix
         result="fbSourceGraphicAlpha"
         in="fbSourceGraphic"
         values="0 0 0 -1 0 0 0 0 -1 0 0 0 0 -1 0 0 0 0 1 0"
         id="feColorMatrix7333" />
      <feColorMatrix
         id="feColorMatrix7335"
         type="saturate"
         values="0"
         in="fbSourceGraphic"
         result="fbSourceGraphic" />
      <feColorMatrix
         result="fbSourceGraphicAlpha"
         in="fbSourceGraphic"
         values="0 0 0 -1 0 0 0 0 -1 0 0 0 0 -1 0 0 0 0 1 0"
         id="feColorMatrix7337" />
      <feColorMatrix
         id="feColorMatrix7339"
         type="saturate"
         values="0"
         in="fbSourceGraphic"
         result="fbSourceGraphic" />
      <feColorMatrix
         result="fbSourceGraphicAlpha"
         in="fbSourceGraphic"
         values="0 0 0 -1 0 0 0 0 -1 0 0 0 0 -1 0 0 0 0 1 0"
         id="feColorMatrix7341" />
      <feColorMatrix
         id="feColorMatrix7343"
         type="saturate"
         values="0"
         in="fbSourceGraphic"
         result="fbSourceGraphic" />
      <feColorMatrix
         result="fbSourceGraphicAlpha"
         in="fbSourceGraphic"
         values="0 0 0 -1 0 0 0 0 -1 0 0 0 0 -1 0 0 0 0 1 0"
         id="feColorMatrix7345" />
      <feColorMatrix
         id="feColorMatrix7347"
         type="saturate"
         values="0"
         in="fbSourceGraphic"
         result="fbSourceGraphic" />
      <feColorMatrix
         result="fbSourceGraphicAlpha"
         in="fbSourceGraphic"
         values="0 0 0 -1 0 0 0 0 -1 0 0 0 0 -1 0 0 0 0 1 0"
         id="feColorMatrix7349" />
      <feColorMatrix
         id="feColorMatrix7351"
         type="saturate"
         values="0"
         in="fbSourceGraphic"
         result="fbSourceGraphic" />
      <feColorMatrix
         result="fbSourceGraphicAlpha"
         in="fbSourceGraphic"
         values="0 0 0 -1 0 0 0 0 -1 0 0 0 0 -1 0 0 0 0 1 0"
         id="feColorMatrix7353" />
      <feColorMatrix
         id="feColorMatrix7355"
         type="saturate"
         values="0"
         in="fbSourceGraphic"
         result="fbSourceGraphic" />
      <feColorMatrix
         result="fbSourceGraphicAlpha"
         in="fbSourceGraphic"
         values="0 0 0 -1 0 0 0 0 -1 0 0 0 0 -1 0 0 0 0 1 0"
         id="feColorMatrix7357" />
      <feColorMatrix
         id="feColorMatrix7359"
         type="saturate"
         values="0"
         in="fbSourceGraphic"
         result="fbSourceGraphic" />
      <feColorMatrix
         result="fbSourceGraphicAlpha"
         in="fbSourceGraphic"
         values="0 0 0 -1 0 0 0 0 -1 0 0 0 0 -1 0 0 0 0 1 0"
         id="feColorMatrix7361" />
      <feColorMatrix
         id="feColorMatrix7363"
         type="saturate"
         values="0"
         in="fbSourceGraphic"
         result="fbSourceGraphic" />
      <feColorMatrix
         result="fbSourceGraphicAlpha"
         in="fbSourceGraphic"
         values="0 0 0 -1 0 0 0 0 -1 0 0 0 0 -1 0 0 0 0 1 0"
         id="feColorMatrix7365" />
      <feColorMatrix
         id="feColorMatrix7367"
         type="saturate"
         values="0"
         in="fbSourceGraphic"
         result="fbSourceGraphic" />
      <feColorMatrix
         result="fbSourceGraphicAlpha"
         in="fbSourceGraphic"
         values="0 0 0 -1 0 0 0 0 -1 0 0 0 0 -1 0 0 0 0 1 0"
         id="feColorMatrix7369" />
      <feColorMatrix
         id="feColorMatrix7371"
         type="saturate"
         values="0"
         in="fbSourceGraphic"
         result="fbSourceGraphic" />
      <feColorMatrix
         result="fbSourceGraphicAlpha"
         in="fbSourceGraphic"
         values="0 0 0 -1 0 0 0 0 -1 0 0 0 0 -1 0 0 0 0 1 0"
         id="feColorMatrix7373" />
      <feColorMatrix
         id="feColorMatrix7375"
         type="saturate"
         values="0"
         in="fbSourceGraphic"
         result="fbSourceGraphic" />
      <feColorMatrix
         result="fbSourceGraphicAlpha"
         in="fbSourceGraphic"
         values="0 0 0 -1 0 0 0 0 -1 0 0 0 0 -1 0 0 0 0 1 0"
         id="feColorMatrix7377" />
      <feColorMatrix
         id="feColorMatrix7379"
         type="saturate"
         values="0"
         in="fbSourceGraphic"
         result="fbSourceGraphic" />
      <feColorMatrix
         result="fbSourceGraphicAlpha"
         in="fbSourceGraphic"
         values="0 0 0 -1 0 0 0 0 -1 0 0 0 0 -1 0 0 0 0 1 0"
         id="feColorMatrix7381" />
      <feColorMatrix
         id="feColorMatrix7383"
         type="saturate"
         values="0"
         in="fbSourceGraphic"
         result="fbSourceGraphic" />
      <feColorMatrix
         result="fbSourceGraphicAlpha"
         in="fbSourceGraphic"
         values="0 0 0 -1 0 0 0 0 -1 0 0 0 0 -1 0 0 0 0 1 0"
         id="feColorMatrix7385" />
      <feColorMatrix
         id="feColorMatrix7387"
         type="saturate"
         values="0"
         in="fbSourceGraphic"
         result="fbSourceGraphic" />
      <feColorMatrix
         result="fbSourceGraphicAlpha"
         in="fbSourceGraphic"
         values="0 0 0 -1 0 0 0 0 -1 0 0 0 0 -1 0 0 0 0 1 0"
         id="feColorMatrix7389" />
      <feColorMatrix
         id="feColorMatrix7391"
         type="saturate"
         values="0"
         in="fbSourceGraphic"
         result="fbSourceGraphic" />
      <feColorMatrix
         result="fbSourceGraphicAlpha"
         in="fbSourceGraphic"
         values="0 0 0 -1 0 0 0 0 -1 0 0 0 0 -1 0 0 0 0 1 0"
         id="feColorMatrix7393" />
      <feColorMatrix
         id="feColorMatrix7395"
         type="saturate"
         values="0"
         in="fbSourceGraphic"
         result="fbSourceGraphic" />
      <feColorMatrix
         result="fbSourceGraphicAlpha"
         in="fbSourceGraphic"
         values="0 0 0 -1 0 0 0 0 -1 0 0 0 0 -1 0 0 0 0 1 0"
         id="feColorMatrix7397" />
      <feColorMatrix
         id="feColorMatrix7399"
         type="saturate"
         values="0"
         in="fbSourceGraphic"
         result="fbSourceGraphic" />
      <feColorMatrix
         result="fbSourceGraphicAlpha"
         in="fbSourceGraphic"
         values="0 0 0 -1 0 0 0 0 -1 0 0 0 0 -1 0 0 0 0 1 0"
         id="feColorMatrix7401" />
      <feColorMatrix
         id="feColorMatrix7403"
         type="saturate"
         values="0"
         in="fbSourceGraphic"
         result="fbSourceGraphic" />
      <feColorMatrix
         result="fbSourceGraphicAlpha"
         in="fbSourceGraphic"
         values="0 0 0 -1 0 0 0 0 -1 0 0 0 0 -1 0 0 0 0 1 0"
         id="feColorMatrix7405" />
      <feColorMatrix
         id="feColorMatrix7407"
         type="saturate"
         values="0"
         in="fbSourceGraphic"
         result="fbSourceGraphic" />
      <feColorMatrix
         result="fbSourceGraphicAlpha"
         in="fbSourceGraphic"
         values="0 0 0 -1 0 0 0 0 -1 0 0 0 0 -1 0 0 0 0 1 0"
         id="feColorMatrix7409" />
      <feColorMatrix
         id="feColorMatrix7411"
         type="saturate"
         values="0"
         in="fbSourceGraphic"
         result="fbSourceGraphic" />
      <feColorMatrix
         result="fbSourceGraphicAlpha"
         in="fbSourceGraphic"
         values="0 0 0 -1 0 0 0 0 -1 0 0 0 0 -1 0 0 0 0 1 0"
         id="feColorMatrix7413" />
      <feColorMatrix
         id="feColorMatrix7415"
         type="saturate"
         values="0"
         in="fbSourceGraphic" />
    </filter>
    <filter
       x="0"
       y="0"
       width="1"
       height="1"
       color-interpolation-filters="sRGB"
       id="filter6574">
      <feFlood
         id="feFlood6576"
         result="result1"
         flood-opacity="0"
         flood-color="rgb(128,128,128)" />
      <feBlend
         in2="SourceGraphic"
         mode="normal"
         result="result2"
         id="feBlend6578" />
      <feComposite
         in2="SourceGraphic"
         operator="arithmetic"
         k1="0"
         k2="1"
         k3="0"
         k4="0"
         result="result3"
         id="feComposite6580" />
      <feComposite
         in2="SourceGraphic"
         operator="in"
         id="feComposite6582" />
    </filter>
  </defs>
  <metadata
     id="metadata7">
    <rdf:RDF>
      <cc:Work
         rdf:about="">
        <dc:format>image/svg+xml</dc:format>
        <dc:type
           rdf:resource="http://purl.org/dc/dcmitype/StillImage" />
        <dc:title></dc:title>
      </cc:Work>
    </rdf:RDF>
  </metadata>
  <g
     transform="translate(0.53082881,-634.4247)"
     id="layer1">
    <g
       transform="matrix(1.6342863,0,0,1.6342863,-272.6678,981.32872)"
       id="g7417">
      <path
         d="m 161.219,11.086 c -37.584,0 -77.936,5.575 -114.349,19.355 -37.761,150.577 -9.901,260.526 114.562,337.413 l -0.213,-356.768 0,0 z m 0.213,356.768 C 285.894,290.967 313.719,181.018 275.957,30.441 239.545,16.661 199.228,11.086 161.645,11.086 l -0.213,356.768 0,0 z"
         transform="matrix(0.35598405,0,0,0.35598405,323.80503,-216.08499)"
         id="path3171"
         style="fill:#ffffff;stroke:#ffffff;stroke-width:0.79299998;stroke-miterlimit:282;filter:url(#filter4677)" />
      <path
         d="m 161.432,11.051 c -37.797,0 -76.055,5.717 -107.144,16.548 -39.11,157.822 -7.702,264.397 107.179,337.235 l -0.035,-353.783 0,0 z"
         transform="matrix(0.35598405,0,0,0.35598405,323.80503,-216.08499)"
         id="path3173"
         style="fill:#ff0b0b;stroke:#ff0b0b;stroke-width:0.79299998;stroke-miterlimit:282;filter:url(#filter4677)" />
      <path
         d="m 161.503,11.051 c 37.796,0 76.055,5.717 107.179,16.548 39.11,157.822 7.701,264.397 -107.214,337.235 l 0.035,-353.783 0,0 z"
         transform="matrix(0.35598405,0,0,0.35598405,323.80503,-216.08499)"
         id="path3175"
         style="fill:#f3000b;stroke:#f3000b;stroke-width:0.79299998;stroke-miterlimit:282;filter:url(#filter4677)" />
      <path
         d="m 112.598,249.203 c -16.68,11.437 -29.953,15.556 -45.356,19.64 l -9.298,-14.454 c 14.161,-7.173 28.818,-17.153 43.582,-31.606 1.242,14.026 7.771,23.969 11.072,26.42 l 0,0 z"
         transform="matrix(0.35598405,0,0,0.35598405,323.80503,-216.08499)"
         id="path3177"
         style="fill:#ffffff;filter:url(#filter4677)" />
      <path
         d="m 110.326,248.6 c -15.828,10.866 -37.868,18.431 -63.101,22.124 l -5.146,-7.812 c 21.613,-8.099 42.481,-20.172 58.665,-37.147 2.449,10.866 6.175,18.076 9.582,22.835 l 0,0 z"
         transform="matrix(0.35598405,0,0,0.35598405,323.80503,-216.08499)"
         id="path3179"
         style="fill:#ad9052;filter:url(#filter4677)" />
      <path
         d="m 68.165,182.225 c 0,6.073 -4.897,10.974 -10.966,10.974 -6.069,0 -11.002,-4.901 -11.002,-10.974 l 0,0 c 0,-6.073 4.933,-10.973 11.002,-10.973 6.069,0 10.966,4.9 10.966,10.973 l 0,0 z"
         transform="matrix(0.35598405,0,0,0.35598405,323.80503,-216.08499)"
         id="path3181"
         style="fill:#ffffff;filter:url(#filter4677)" />
      <path
         d="m 66.993,160.597 v 41.409 h 32.615 c 2.129,-13.886 10.008,-28.624 27.859,-41.409 H 66.993"
         transform="matrix(0.35598405,0,0,0.35598405,323.80503,-216.08499)"
         id="path3183"
         style="fill:#ffffff;filter:url(#filter4677)" />
      <path
         d="m 68.307,202.006 c -7.276,0.106 -13.273,-9.021 -13.38,-20.456 -0.071,-11.436 5.75,-20.811 13.061,-20.953 0.071,0 0.142,0 0.249,0"
         transform="matrix(0.35598405,0,0,0.35598405,323.80503,-216.08499)"
         id="path3185"
         style="fill:#ffffff;filter:url(#filter4677)" />
      <path
         d="m 63.551,182.225 c 0,4.688 -3.407,8.453 -7.595,8.453 -4.188,0 -7.595,-3.764 -7.595,-8.453 l 0,0 c 0,-4.688 3.407,-8.452 7.595,-8.452 4.188,-0.001 7.595,3.764 7.595,8.452 l 0,0 z"
         transform="matrix(0.35598405,0,0,0.35598405,323.80503,-216.08499)"
         id="path3187"
         style="fill:#ad9052;filter:url(#filter4677)" />
      <path
         d="m 67.881,162.764 v 37.217 h 32.367 c 2.555,-12.358 8.837,-25.498 24.523,-37.217 h -56.89"
         transform="matrix(0.35598405,0,0,0.35598405,323.80503,-216.08499)"
         id="path3189"
         style="fill:#ad9052;filter:url(#filter4677)" />
      <path
         d="m 69.087,199.981 c -6.85,0.143 -12.457,-8.096 -12.563,-18.36 -0.071,-10.263 5.43,-18.716 12.279,-18.857 0.071,0 0.142,0 0.213,0"
         transform="matrix(0.35598405,0,0,0.35598405,323.80503,-216.08499)"
         id="path3191"
         style="fill:#ad9052;filter:url(#filter4677)" />
      <path
         d="m 223.325,211.701 c 0,34.556 -27.965,62.539 -62.497,62.539 -34.496,0 -62.497,-27.983 -62.497,-62.539 l 0,0 c 0,-34.554 28.001,-62.539 62.497,-62.539 34.532,0 62.497,27.985 62.497,62.539 l 0,0 0,0 z"
         transform="matrix(0.35598405,0,0,0.35598405,323.80503,-216.08499)"
         id="path3193"
         style="fill:#ffffff;filter:url(#filter4677)" />
      <path
         d="m 220.062,211.701 c 0,32.744 -26.512,59.271 -59.233,59.271 -32.686,0 -59.197,-26.527 -59.197,-59.271 l 0,0 c 0,-32.707 26.511,-59.271 59.197,-59.271 32.721,-0.001 59.233,26.528 59.233,59.271 l 0,0 0,0 z"
         transform="matrix(0.35598405,0,0,0.35598405,323.80503,-216.08499)"
         id="path3195"
         style="fill:#ad9052;filter:url(#filter4677)" />
      <path
         d="m 210.23,211.701 c 0,27.31 -22.111,49.436 -49.402,49.436 -27.256,0 -49.366,-22.126 -49.366,-49.436 l 0,0 c 0,-27.31 22.11,-49.435 49.366,-49.435 27.291,0 49.402,22.125 49.402,49.435 l 0,0 0,0 z"
         transform="matrix(0.35598405,0,0,0.35598405,323.80503,-216.08499)"
         id="path3197"
         style="fill:#ffffff;filter:url(#filter4677)" />
      <path
         d="m 206.966,211.701 c 0,25.498 -20.656,46.132 -46.138,46.132 -25.446,0 -46.101,-20.634 -46.101,-46.132 l 0,0 c 0,-25.498 20.655,-46.131 46.101,-46.131 25.482,-0.001 46.138,20.633 46.138,46.131 l 0,0 0,0 z"
         transform="matrix(0.35598405,0,0,0.35598405,323.80503,-216.08499)"
         id="path3199"
         style="fill:#ad9052;filter:url(#filter4677)" />
      <path
         d="m 180.063,211.701 c 0.036,10.619 -8.588,19.249 -19.2,19.284 -10.646,0 -19.271,-8.629 -19.271,-19.248 v -0.036 c 0,-10.619 8.589,-19.248 19.235,-19.248 10.611,-0.035 19.235,8.595 19.235,19.213 10e-4,0.035 10e-4,0.035 10e-4,0.035 l 0,0 z"
         transform="matrix(0.35598405,0,0,0.35598405,323.80503,-216.08499)"
         id="path3201"
         style="fill:#ffffff;filter:url(#filter4677)" />
      <path
         d="m 177.793,211.701 c 0,9.377 -7.561,16.976 -16.929,16.976 -9.369,0 -16.964,-7.563 -17,-16.939 v -0.036 c 0,-9.375 7.595,-16.976 16.964,-16.976 9.369,0 16.965,7.565 16.965,16.94 v 0.035 l 0,0 z"
         transform="matrix(0.35598405,0,0,0.35598405,323.80503,-216.08499)"
         id="path3203"
         style="fill:#ad9052;filter:url(#filter4677)" />
      <path
         d="m 169.559,211.701 c 0,4.794 -3.904,8.7 -8.73,8.735 -4.791,0 -8.695,-3.905 -8.695,-8.735 l 0,0 c 0,-4.829 3.904,-8.7 8.695,-8.735 4.825,-0.001 8.73,3.906 8.73,8.735 l 0,0 0,0 z"
         transform="matrix(0.35598405,0,0,0.35598405,323.80503,-216.08499)"
         id="path3205"
         style="fill:#ffffff;filter:url(#filter4677)" />
      <path
         d="m 167.146,211.701 c 0,3.48 -2.804,6.321 -6.317,6.321 -3.478,0 -6.317,-2.806 -6.317,-6.321 l 0,0 c 0,-3.479 2.839,-6.32 6.317,-6.32 3.477,-0.001 6.317,2.804 6.317,6.32 l 0,0 0,0 z"
         transform="matrix(0.35598405,0,0,0.35598405,323.80503,-216.08499)"
         id="path3207"
         style="fill:#ad9052;filter:url(#filter4677)" />
      <rect
         width="13.131"
         height="30.646999"
         x="154.192"
         y="164.504"
         transform="matrix(0.35598405,0,0,0.35598405,323.80503,-216.08499)"
         id="rect3209"
         style="fill:#ffffff;filter:url(#filter4677)" />
      <rect
         width="9.0489998"
         height="38.958"
         x="156.25"
         y="160.10001"
         transform="matrix(0.35598405,0,0,0.35598405,323.80503,-216.08499)"
         id="rect3211"
         style="fill:#ad9052;filter:url(#filter4677)" />
      <polygon
         points="204.587,192.807 178.893,209.5 171.76,198.49 197.418,181.798 "
         transform="matrix(0.35598405,0,0,0.35598405,323.80503,-216.08499)"
         id="polygon3213"
         style="fill:#ffffff;filter:url(#filter4677)" />
      <polygon
         points="207.143,188.724 174.492,209.961 169.559,202.326 202.21,181.124 "
         transform="matrix(0.35598405,0,0,0.35598405,323.80503,-216.08499)"
         id="polygon3215"
         style="fill:#ad9052;filter:url(#filter4677)" />
      <polygon
         points="149.436,225.267 123.564,241.675 116.537,230.559 142.409,214.187 "
         transform="matrix(0.35598405,0,0,0.35598405,323.80503,-216.08499)"
         id="polygon3217"
         style="fill:#ffffff;filter:url(#filter4677)" />
      <polygon
         points="151.672,221.219 118.809,242.065 113.946,234.394 146.81,213.548 "
         transform="matrix(0.35598405,0,0,0.35598405,323.80503,-216.08499)"
         id="polygon3219"
         style="fill:#ad9052;filter:url(#filter4677)" />
      <rect
         width="13.131"
         height="30.646"
         x="154.192"
         y="229.28101"
         transform="matrix(0.35598405,0,0,0.35598405,323.80503,-216.08499)"
         id="rect3221"
         style="fill:#ffffff;filter:url(#filter4677)" />
      <rect
         width="9.0489998"
         height="38.922001"
         x="156.25"
         y="224.91299"
         transform="matrix(0.35598405,0,0,0.35598405,323.80503,-216.08499)"
         id="rect3223"
         style="fill:#ad9052;filter:url(#filter4677)" />
      <path
         d="m 148.017,226.013 c 1.775,1.491 3.726,2.841 6.175,3.871 l -0.071,27.345 c -12.386,-1.598 -21.755,-7.706 -28.853,-16.406 l 22.785,-14.81"
         transform="matrix(0.35598405,0,0,0.35598405,323.80503,-216.08499)"
         id="path3225"
         style="fill:#ff0b0b;stroke:#ff0b0b;stroke-width:0.31150001;stroke-miterlimit:282;filter:url(#filter4677)" />
      <path
         d="m 173.604,226.12 c -1.81,1.456 -3.727,2.841 -6.175,3.835 l 0.035,27.346 c 12.386,-1.598 21.756,-7.706 28.854,-16.407 l -22.749,-14.773"
         transform="matrix(0.35598405,0,0,0.35598405,323.80503,-216.08499)"
         id="path3227"
         style="fill:#f3000b;stroke:#f3000b;stroke-width:0.31150001;stroke-miterlimit:282;filter:url(#filter4677)" />
      <path
         d="m 179.815,214.649 27.114,-3.268 c 0.213,6.782 -1.42,12.749 -3.727,18.467 l -23.459,-15.199"
         transform="matrix(0.35598405,0,0,0.35598405,323.80503,-216.08499)"
         id="path3229"
         style="fill:#f3000b;filter:url(#filter4677)" />
      <path
         d="m 179.851,214.542 c 0.106,-0.426 0.071,-0.816 0.249,-2.059 l 26.76,-3.48 c 0.106,1.243 0.035,1.704 0,2.272 l -27.009,3.267 0,0 z"
         transform="matrix(0.35598405,0,0,0.35598405,323.80503,-216.08499)"
         id="path3231"
         style="fill:#ffffff;stroke:#ffffff;stroke-width:0.31150001;stroke-miterlimit:282;filter:url(#filter4677)" />
      <path
         d="m 219.458,191.992 h 35.1 c -1.101,4.154 -2.166,8.38 -7.206,10.263 -8.056,3.02 -24.771,5.931 -24.771,5.931 -0.32,-4.582 -1.349,-10.798 -3.123,-16.194 l 0,0 z"
         transform="matrix(0.35598405,0,0,0.35598405,323.80503,-216.08499)"
         id="path3233"
         style="fill:#ffffff;filter:url(#filter4677)" />
      <path
         d="m 195.006,159.994 91.705,0.106 -3.229,33.524 -62.64,3.268 c -3.372,-14.987 -14.765,-29.298 -25.836,-36.898 l 0,0 z"
         transform="matrix(0.35598405,0,0,0.35598405,323.80503,-216.08499)"
         id="path3235"
         style="fill:#ffffff;filter:url(#filter4677)" />
      <path
         d="m 198.27,162.373 117.081,0.106 -4.472,27.311 -90.854,4.475 C 216.44,180.698 208.243,170.79 198.27,162.373 l 0,0 z"
         transform="matrix(0.35598405,0,0,0.35598405,323.80503,-216.08499)"
         id="path3237"
         style="fill:#ad9052;filter:url(#filter4677)" />
      <path
         d="m 219.458,191.992 h 32.33 c -1.064,3.692 -1.81,7.066 -6.565,8.735 -7.559,2.699 -22.784,4.83 -22.784,4.83 -0.639,-4.438 -1.562,-8.949 -2.981,-13.565 l 0,0 z"
         transform="matrix(0.35598405,0,0,0.35598405,323.80503,-216.08499)"
         id="path3239"
         style="fill:#ad9052;filter:url(#filter4677)" />
      <polygon
         points="124.877,179.313 150.501,196.075 143.296,207.084 117.673,190.287 "
         transform="matrix(0.35598405,0,0,0.35598405,323.80503,-216.08499)"
         id="polygon3257"
         style="fill:#ffffff;filter:url(#filter4677)" />
      <polygon
         points="120.264,178.922 152.808,200.265 147.839,207.866 115.295,186.522 "
         transform="matrix(0.35598405,0,0,0.35598405,323.80503,-216.08499)"
         id="polygon3259"
         style="fill:#ad9052;filter:url(#filter4677)" />
      <polygon
         points="179.567,214.222 205.19,231.02 197.986,242.03 172.363,225.232 "
         transform="matrix(0.35598405,0,0,0.35598405,323.80503,-216.08499)"
         id="polygon3261"
         style="fill:#ffffff;filter:url(#filter4677)" />
      <polygon
         points="174.953,213.868 207.498,235.211 202.529,242.776 169.984,221.467 "
         transform="matrix(0.35598405,0,0,0.35598405,323.80503,-216.08499)"
         id="polygon3263"
         style="fill:#ad9052;filter:url(#filter4677)" />
    </g>
    <g
       transform="matrix(1.2468164,0,0,1.2468164,499.32683,959.39055)"
       id="Google +"
       style="fill:none;stroke:none">
      <path
         d="m 0.11416185,30 c 0,-16.568543 13.45086615,-30 30.04335315,-30 16.592486,0 30.043352,13.431457 30.043352,30 0,16.568543 -13.450866,30 -30.043352,30 C 13.565028,60 0.11416185,46.568543 0.11416185,30 z m 0,0"
         id="path3942"
         style="fill:#d34836" />
      <path
         d="m 59.267363,23.0943 -7.104645,0 0,7.882728 -3.348828,0 0,-7.882728 -7.81389,0 0,-3.28083 7.81389,0 0,-7.81347 3.348828,0 0,7.81347 5.965453,0 c 0.440598,1.06417 0.821725,2.15921 1.139192,3.28083 z m 0,0"
         id="path3944"
         style="fill:#ffffff" />
      <path
         d="m 8.3675111,49.415166 c 0.8400653,-1.410653 2.1426509,-2.797543 4.0723519,-3.937243 4.35407,-2.663963 10.218223,-3.015807 13.389396,-3.216861 -0.981554,-1.256586 -2.114115,-2.588567 -2.114115,-4.775026 0,-1.181191 0.352352,-1.884879 0.704705,-2.714226 -0.780209,0.0754 -1.535251,0.15079 -2.239956,0.15079 -7.424571,0 -11.627633,-5.528978 -11.627633,-10.982561 0,-3.21686 1.484914,-6.790591 4.479911,-9.376645 4.001718,-3.284716 8.758477,-3.845153 12.533682,-3.845153 l 14.421286,0 -4.479911,2.515685 -4.328902,0 c 1.610754,1.329468 4.958103,4.126628 4.958103,9.449527 0,5.177134 -2.94466,7.614911 -5.864153,9.927029 -0.931217,0.904742 -1.963107,1.884879 -1.963107,3.417914 0,1.533035 1.03189,2.387513 1.812099,3.015806 l 2.516804,1.960274 c 3.095668,2.563436 5.889321,4.950949 5.889321,9.776239 0,3.1821 -1.487136,6.37594 -4.384709,8.826991 -1.559038,0.253808 -3.158383,0.387794 -4.788244,0.392183 2.942261,-1.288781 4.46653,-3.646813 4.46653,-6.479816 0,-3.568704 -2.290292,-5.453583 -7.625916,-9.248473 -0.553696,-0.05026 -0.906049,-0.05026 -1.610754,-0.05026 -0.629201,0 -4.404407,0.125658 -7.349067,1.105795 -1.53525,0.552898 -6.015161,2.236723 -6.015161,7.212804 0,0.540778 0.05765,1.065065 0.170135,1.570012 C 6.0108515,48.643728 9.2075765,49.415167 8.3675111,49.415166 z M 31.97026,25.900313 c 0,-5.051476 -2.994997,-12.87498 -8.808813,-12.87498 -1.812099,0 -3.775206,0.909768 -4.907767,2.309605 -1.182898,1.467692 -1.535251,3.352571 -1.535251,5.162055 0,4.699632 2.718148,12.465333 8.758477,12.465333 1.736595,0 3.624198,-0.854478 4.756759,-1.960274 1.610755,-1.60843 1.736595,-3.845153 1.736595,-5.101739 z m 0,0"
         id="path3946"
         style="fill:#ffffff" />
      <path
         d="m 60.267363,30.180589 c 0,16.568543 -13.450866,30 -30.043352,30 -6.153761,0 -11.875393,-1.847487 -16.638863,-5.017225 L 48.009706,6 c 7.433763,5.461239 12.257657,14.258386 12.257657,24.180589 z m 0,0"
         id="path3948"
         style="fill:#000000;fill-opacity:0.07999998" />
    </g>
    <g
       transform="matrix(1.2481962,0,0,1.2481962,398.89919,959.53293)"
       id="LinkedIN"
       style="fill:none;stroke:none">
      <path
         d="M 0.4566474,30 C 0.4566474,13.431457 13.907514,0 30.5,0 47.092486,0 60.543353,13.431457 60.543353,30 60.543353,46.568543 47.092486,60 30.5,60 13.907514,60 0.4566474,46.568543 0.4566474,30 z m 0,0"
         id="path3960"
         style="fill:#007bb6" />
      <path
         d="m 22.842506,23.709814 -6.798655,0 0,20.42714 6.798655,0 0,-20.42714 z m 0,0"
         id="path3962"
         style="fill:#ffffff" />
      <path
         d="m 23.290283,17.390876 c -0.04413,-2.002868 -1.476387,-3.528372 -3.802164,-3.528372 -2.325777,0 -3.84629,1.525504 -3.84629,3.528372 0,1.961382 1.475572,3.530813 3.758038,3.530813 l 0.04345,0 c 2.370582,0 3.846969,-1.569431 3.846969,-3.530813 z m 0,0"
         id="path3964"
         style="fill:#ffffff" />
      <path
         d="m 47.361061,32.424656 c 0,-6.274333 -3.35398,-9.19451 -7.827809,-9.19451 -3.609639,0 -5.225735,1.982667 -6.128077,3.373544 l 0,-2.893333 -6.799471,0 c 0.08961,1.916777 0,20.427139 0,20.427139 l 6.799471,0 0,-11.4082 c 0,-0.6105 0.04413,-1.219508 0.223888,-1.656606 0.491359,-1.219644 1.610122,-2.482402 3.488395,-2.482402 2.461142,0 3.444947,1.873122 3.444947,4.618135 l 0,10.928531 6.798385,0 2.71e-4,-11.712298 z m 0,0"
         id="path3966"
         style="fill:#ffffff" />
      <path
         d="M 60.543353,30 C 60.543353,46.568543 47.092486,60 30.5,60 24.34624,60 18.624607,58.152513 13.861137,54.982775 L 48.285695,5.819411 C 55.719458,11.28065 60.543353,20.077797 60.543353,30 z m 0,0"
         id="path3968"
         style="fill:#000000;fill-opacity:0.07999998" />
    </g>

    <a href="http://divyun.com/twitter">
       <g
          transform="matrix(1.2481963,0,0,1.2481963,299.46917,959.53293)"
          id="Twitter"
          style="fill:none;stroke:none">
         <path
            d="M 0,30 C 0,13.431457 13.450866,0 30.043353,0 c 16.592486,0 30.043352,13.431457 30.043352,30 0,16.568543 -13.450866,30 -30.043352,30 C 13.450866,60 0,46.568543 0,30 z m 0,0"
            id="path4002"
            style="fill:#4099ff" />
         <path
            d="m 29.299768,23.887978 0.06295,1.038067 -1.049219,-0.12711 c -3.819158,-0.487256 -7.155674,-2.139691 -9.988565,-4.914933 l -1.384969,-1.377028 -0.356735,1.016882 c -0.755437,2.266801 -0.272797,4.660712 1.301032,6.270776 0.839375,0.889773 0.650516,1.016883 -0.797407,0.487257 -0.503625,-0.169481 -0.944297,-0.296591 -0.986266,-0.233036 -0.14689,0.148296 0.356735,2.076135 0.755438,2.838797 0.545594,1.059253 1.657766,2.097321 2.87486,2.711687 l 1.028235,0.487257 -1.217094,0.02119 c -1.175125,0 -1.217094,0.02119 -1.091188,0.466071 0.419688,1.377029 2.077454,2.838797 3.924079,3.474349 l 1.301032,0.444886 -1.133157,0.677922 c -1.67875,0.974512 -3.651282,1.525324 -5.623814,1.567694 -0.944297,0.02119 -1.720719,0.105925 -1.720719,0.16948 0,0.211851 2.560094,1.398214 4.049985,1.864285 4.469673,1.377029 9.778721,0.783847 13.765754,-1.567694 2.832891,-1.673619 5.665782,-4.999673 6.987798,-8.219801 0.713469,-1.71599 1.426938,-4.851378 1.426938,-6.355516 0,-0.974513 0.06295,-1.101623 1.238078,-2.266801 0.692485,-0.677922 1.343001,-1.419399 1.468907,-1.63125 0.209844,-0.402516 0.18886,-0.402516 -0.881344,-0.04237 -1.783672,0.635552 -2.035485,0.550812 -1.154141,-0.402516 0.650516,-0.677922 1.426938,-1.906655 1.426938,-2.266801 0,-0.06356 -0.314766,0.04237 -0.6715,0.233036 -0.377719,0.211851 -1.217094,0.529626 -1.846626,0.720292 l -1.133156,0.360146 -1.028235,-0.699107 c -0.566578,-0.381331 -1.363984,-0.805032 -1.783672,-0.932142 -1.070203,-0.296591 -2.706985,-0.254221 -3.672266,0.08474 -2.623048,0.953327 -4.280814,3.410794 -4.091954,6.101296 z m 0,0"
            id="path4004"
            style="fill:#ffffff" />
         <path
            d="m 60.086705,30 c 0,16.568543 -13.450866,30 -30.043352,30 C 23.889592,60 18.16796,58.152513 13.40449,54.982775 L 47.829048,5.819411 C 55.262811,11.28065 60.086705,20.077797 60.086705,30 z m 0,0"
            id="path4006"
            style="fill:#000000;fill-opacity:0.07999998" />
       </g>
    </a>

    <g
       transform="matrix(1.2481962,0,0,1.2481962,599.04168,959.53294)"
       id="Github"
       style="fill:none;stroke:none">
      <path
         d="m 0.34248555,30 c 0,-16.568543 13.45086645,-30 30.04335245,-30 16.592486,0 30.043353,13.431457 30.043353,30 0,16.568543 -13.450867,30 -30.043353,30 C 13.793352,60 0.34248555,46.568543 0.34248555,30 z m 0,0"
         id="path4023"
         style="fill:#333333" />
      <path
         d="m 18.522065,31.935557 c 1.411566,2.515233 4.133873,4.080119 8.725343,4.51296 -0.655371,0.488017 -1.442591,1.414581 -1.551173,2.485744 -0.82406,0.523214 -2.480905,0.695399 -3.769348,0.296805 -1.805176,-0.559364 -2.496417,-4.066802 -5.199334,-3.56737 -0.585568,0.108448 -0.46923,0.487065 0.03684,0.808604 0.82406,0.523214 1.599646,1.177707 2.197817,2.57136 0.459535,1.070211 1.425139,2.982321 4.479009,2.982321 1.211853,0 2.06112,-0.142695 2.06112,-0.142695 0,0 0.02327,2.731179 0.02327,3.792828 0,1.224321 -1.683992,1.569643 -1.683992,2.158497 0,0.233068 0.557453,0.254948 1.005354,0.254948 0.885137,0 2.727154,-0.72489 2.727154,-1.997727 0,-1.011231 0.01648,-4.411172 0.01648,-5.005734 0,-1.300425 0.710631,-1.712337 0.710631,-1.712337 0,0 0.08822,6.941626 -0.169659,7.871996 -0.302479,1.093993 -0.848298,0.938932 -0.848298,1.426948 0,0.725841 2.217207,0.177893 2.952075,-1.415532 0.568116,-1.240494 0.319929,-8.04989 0.319929,-8.04989 l 0.605926,-0.01237 c 0,0 0.03393,3.117406 0.01357,4.542451 -0.02133,1.475465 -0.123124,3.341913 0.769769,4.221864 0.586537,0.57839 2.488662,1.593425 2.488662,0.665909 0,-0.539386 -1.042194,-0.982692 -1.042194,-2.441984 l 0,-6.714266 c 0.831816,0 0.706753,2.207965 0.706753,2.207965 l 0.06108,4.101999 c 0,0 -0.183232,1.494491 1.647151,2.120445 0.645676,0.221653 2.028158,0.281584 2.093113,-0.09037 0.06495,-0.372909 -1.664602,-0.927516 -1.680113,-2.085247 -0.0097,-0.705864 0.03199,-1.117776 0.03199,-4.185714 0,-3.067938 -0.419786,-4.201886 -1.882735,-5.10562 4.51488,-0.455672 7.308928,-1.551663 8.671051,-4.487276 0.10636,0.0034 0.554493,-1.371295 0.496375,-1.370821 0.305387,-1.108263 0.470199,-2.419152 0.503162,-3.971672 -0.0078,-4.209496 -2.06112,-5.698279 -2.4557,-6.397483 0.58169,-3.186851 -0.09695,-4.637581 -0.41203,-5.13511 -1.163379,-0.406205 -4.047589,1.044526 -5.622998,2.067172 -2.569129,-0.737257 -7.998231,-0.665909 -10.034144,0.19026 -3.756745,-2.639854 -5.744184,-2.235552 -5.744184,-2.235552 0,0 -1.284564,2.259334 -0.339319,5.565097 -1.23609,1.54586 -2.157099,2.639854 -2.157099,5.539412 0,1.63338 0.195836,3.095526 0.63792,4.372168 -0.05419,-1.31e-4 0.592906,1.367438 0.610774,1.367017 z m 0,0"
         id="path4025"
         style="fill:#ffffff" />
      <path
         d="m 60.429191,30 c 0,16.568543 -13.450867,30 -30.043353,30 -6.15376,0 -11.875393,-1.847487 -16.638863,-5.017225 L 48.171533,5.819411 C 55.605296,11.28065 60.429191,20.077797 60.429191,30 z m 0,0"
         id="path4027"
         style="fill:#000000;fill-opacity:0.07999998" />
    </g>
    <flowRoot
       transform="translate(-0.53082881,594.4247)"
       id="flowRoot14303"
       xml:space="preserve"
       style="font-size:40px;font-style:normal;font-weight:normal;line-height:125%;letter-spacing:0px;word-spacing:0px;fill:#000000;fill-opacity:1;stroke:none;font-family:Sans"><flowRegion
         id="flowRegion14305"><rect
           width="381.83765"
           height="107.07617"
           x="250.51784"
           y="219.78674"
           id="rect14307" /></flowRegion><flowPara
         id="flowPara14309" /></flowRoot>
   <g
       id="g3139">
      <text
         x="-24.237522"
         y="834.47534"
         id="text3321"
         xml:space="preserve"
         style="font-size:271.68920898px;font-style:normal;font-weight:normal;line-height:125%;letter-spacing:0px;word-spacing:0px;fill:#666666;fill-opacity:1;stroke:none;font-family:Sans"><tspan
           x="-24.237522"
           y="834.47534"
           id="tspan3323"
           style="font-style:normal;font-variant:normal;font-weight:normal;font-stretch:normal;fill:#333333;font-family:DejaVu Sans;-inkscape-font-specification:DejaVu Sans">DI</tspan></text>
      <text
         x="491.23196"
         y="865.44348"
         transform="scale(0.99897505,1.001026)"
         id="text3327"
         xml:space="preserve"
         style="font-size:44.16679001px;font-style:normal;font-variant:normal;font-weight:500;font-stretch:normal;text-align:center;line-height:100%;letter-spacing:0px;word-spacing:0px;text-anchor:middle;fill:#808080;fill-opacity:1;stroke:none;font-family:Century Schoolbook L;-inkscape-font-specification:Century Schoolbook L Medium"><tspan
           x="492.99841"
           y="865.44348"
           id="tspan14301"
           style="font-size:36.23004913px;font-style:normal;font-variant:normal;font-weight:normal;font-stretch:normal;line-height:100%;letter-spacing:3.53289676px;fill:#808080;font-family:TeX Gyre Schola;-inkscape-font-specification:TeX Gyre Schola">Divyun Raje Vaid, the sXe Gooner &amp; Programmer</tspan></text>
      <text
         x="436.6153"
         y="832.43048"
         id="text3321-6"
         xml:space="preserve"
         style="font-size:271.68920898px;font-style:normal;font-weight:normal;line-height:125%;letter-spacing:0px;word-spacing:0px;fill:#666666;fill-opacity:1;stroke:none;font-family:Sans"><tspan
           x="436.6153"
           y="832.43048"
           id="tspan3323-7"
           style="font-style:normal;font-variant:normal;font-weight:normal;font-stretch:normal;fill:#333333;font-family:DejaVu Sans;-inkscape-font-specification:DejaVu Sans">YUN</tspan></text>
    </g>
  </g>
</svg>
